<?xml version="1.0" encoding="UTF-8"?>
<svg width="296px" height="303px" viewBox="0 0 296 303" version="1.1" xmlns="http://www.w3.org/2000/svg" xmlns:xlink="http://www.w3.org/1999/xlink">
    <title>Portrait Black</title>
    <g id="Page-1" stroke="none" stroke-width="1" fill="none" fill-rule="evenodd">
        <g id="Portrait-Black" transform="translate(0.340000, 0.260000)">
            <path d="M94.7635312,41.8941892 L93.3659985,42.0002032 C90.7911964,42.2046587 88.2391802,41.432271 86.1580717,39.9026403 C77.4614689,33.5190824 68.4230781,31.5578232 64.2380754,35.7302317 C62.8633285,37.1008414 62.1569669,38.9939487 62.0506329,41.2278154 C68.1420526,40.9249182 76.3677477,45.4532309 83.7807471,52.8439219 C91.1937466,60.2346128 95.7357278,68.4431261 95.4395116,74.508642 C97.6725258,74.402628 99.5713474,73.698392 100.946094,72.3277823 C105.131097,68.1553738 103.163918,59.1517554 96.7686868,50.4737515 C95.2344389,48.3989059 94.4521244,45.8621421 94.6571972,43.2875161 L94.7635312,41.8941892 Z" id="Fill-14" fill="#131313"></path>
            <path d="M93.4177215,75.2519231 C92.8239875,69.5775836 88.6010544,62.4680134 82.0996671,55.9872814 C78.70054,52.5989535 75.1307143,49.8394637 71.6870571,47.8863664 C67.9094246,51.1563248 60.7103998,58.3916626 59.107318,67.2545814 C58.8030293,68.919153 58.6694392,70.4357627 58.6471742,71.8414009 C57.8233682,69.4518159 57.9124283,67.1214157 58.765921,62.4014305 C60.0795574,55.1217042 65.4083201,48.3376503 68.0727014,46.1256196 C66.2172827,45.3710138 64.4360807,44.8827395 62.7736255,44.7051852 C60.3690028,46.5990977 52.7988943,53.2721802 52.3461721,62.5641887 C51.8043898,73.6169439 58.2909338,78.5366777 56.6730086,81.3331579 C59.4784018,79.720373 64.4138156,86.1863088 75.5017981,85.6536459 C84.8382652,85.194964 91.5251944,77.6415081 93.4177215,75.2519231" id="Fill-15" fill="#131313"></path>
            <path d="M294.867582,149.360048 C294.318214,142.630249 293.293716,136.174681 291.838633,130.186049 C290.457789,124.642117 288.728021,119.283477 286.708722,114.273185 C286.070267,112.546265 285.454084,110.982402 284.837901,109.492656 C284.652303,109.344422 284.511249,109.15913 284.407315,108.93678 C273.984167,86.3978804 256.538016,67.2757622 235.298254,55.0909706 C232.685044,53.5789892 229.938203,52.2078296 227.146819,50.903375 C227.109699,50.8737283 227.080004,50.8440816 227.050308,50.8144349 C226.300495,50.4660862 225.52841,50.154796 224.771172,49.8212706 C223.991664,49.4803336 223.219579,49.1245733 222.425222,48.8058713 C222.321287,48.7614013 222.224777,48.7169313 222.128266,48.6724612 C222.120842,48.6724612 222.105994,48.6798729 222.09857,48.6798729 C209.529918,43.5732297 195.58042,40.5418552 181.593803,40.023038 C181.526988,40.023038 181.460173,40.0156263 181.400782,40.000803 C174.303539,38.8742286 164.904889,33.4488834 161.03704,24.2065263 C158.809872,18.8849446 157.703712,10.49493 164.310978,0 L164.310978,0 C160.428281,0 155.075653,1.35633629 151.423097,5.52910858 C151.089022,5.90710394 150.599045,6.10721913 150.109068,6.07016076 C145.238993,5.7218121 124.578296,6.01086737 110.324419,13.4966578 C111.296949,19.8114038 115.832948,36.0281459 136.909384,42.1057183 C137.666621,42.3280685 138.149174,43.0766476 138.04524,43.8548733 C137.926458,44.6405107 137.258307,45.2186213 136.46395,45.2186213 C132.128396,45.2186213 127.206354,44.1513403 121.831455,42.0464249 C113.316248,38.7037601 106.278396,34.412401 100.910921,29.2761111 L97.1544304,25.258984 C99.4855332,32.1888989 106.471418,44.566394 127.429071,53.9718079 C133.227133,56.5733054 141.720068,57.4627062 148.891549,57.9741117 C152.046704,58.0704635 155.172164,58.3002254 158.275352,58.648574 C158.512916,58.670809 158.735633,58.6930441 158.95835,58.7226908 C158.980622,58.7226908 159.002893,58.7301024 159.032589,58.7301024 C177.428999,60.9239578 194.637586,67.4907007 209.544765,77.3926968 C211.697695,78.8231498 213.806081,80.3128963 215.855075,81.8841711 C216.545498,82.4103999 217.221072,82.9514521 217.896646,83.4925043 C219.782315,85.0044857 221.616017,86.5757605 223.405176,88.2063287 C224.036207,88.7696159 224.667238,89.3329032 225.283421,89.9184254 C227.273025,91.8084022 229.195813,93.7724957 231.051787,95.8032943 C231.363591,96.1442313 231.690242,96.4629333 231.994622,96.8038702 C234.169823,99.2348992 236.233665,101.76228 238.200997,104.378601 C238.520225,104.808478 238.809756,105.268002 239.128984,105.697879 C240.688002,107.839852 242.180204,110.026296 243.590744,112.272033 C244.132689,113.139199 244.644937,114.036012 245.172034,114.918001 C246.300466,116.830213 247.37693,118.772071 248.401428,120.750988 C248.913676,121.744152 249.418501,122.744728 249.908478,123.760128 C250.888432,125.798338 251.794147,127.88843 252.655319,130.000757 C253.041362,130.942039 253.449676,131.868499 253.806023,132.817193 C254.96415,135.878214 256.033191,138.991117 256.938906,142.185548 C254.080707,119.150066 242.573671,86.8870508 223.538806,68.2911615 C222.944894,67.7056393 222.900351,66.756945 223.449719,66.1195411 C223.999087,65.4895488 224.941922,65.3857854 225.610072,65.8897792 L226.144593,66.2900096 C226.515788,66.5642415 226.879558,66.8384735 227.243329,67.1201171 C232.06886,70.9890107 236.159426,74.6577892 239.760015,78.3339794 C243.427419,82.113933 246.961192,86.2422352 250.576629,90.970883 C253.89511,95.5068273 256.909211,100.161358 259.544693,104.838125 C262.046545,109.374069 264.333105,114.213892 266.560273,119.661472 C267.042826,120.965927 267.525379,122.218499 268.007932,123.463661 C268.32716,124.293768 268.59442,125.123875 268.86168,125.946571 C269.010158,126.420918 269.16606,126.887854 269.321962,127.354789 L269.967841,129.274413 L271.14824,133.395303 C271.341261,134.017884 271.526858,134.640465 271.660488,135.277868 L272.610747,139.161585 C272.818616,140.02134 272.981942,140.881094 273.145267,141.74826 C273.234354,142.230018 273.316017,142.704365 273.419951,143.186124 L273.813418,145.179865 L274.125221,147.247721 C274.19946,147.759127 274.281123,148.248297 274.355362,148.737468 C274.496416,149.597222 274.630046,150.449565 274.733981,151.31673 C275.372436,156.905132 275.684239,162.434241 275.654544,167.755823 C275.595152,170.068265 275.47637,172.44 275.283349,175.034086 C275.268501,175.367612 275.268501,175.745607 275.283349,176.116191 C275.283349,176.116191 275.283349,176.116191 275.283349,176.123602 C275.298197,176.212542 275.313044,176.368187 275.313044,176.457128 C275.231382,179.629324 275.016089,182.764462 274.726557,185.884776 C274.644894,186.759354 274.533536,187.633931 274.437025,188.508509 C274.162341,190.90248 273.835689,193.281627 273.434799,195.645951 C273.308593,196.431588 273.182387,197.224637 273.041333,198.002863 C271.883205,204.199022 270.294492,210.284006 268.275193,216.242992 C266.018329,222.891263 263.264064,229.398713 259.938159,235.713459 L259.3294,236.78074 C259.299705,236.884503 259.255161,236.980855 259.203194,237.077207 C252.172766,250.055047 242.937442,261.898902 232.06886,271.956543 C263.709498,252.575016 285.951485,220.571409 292.714653,183.765038 C293.642639,179.028978 294.355333,173.959393 294.830462,168.682282 C295.313016,161.693074 295.320439,155.363504 294.867582,149.360048" id="Fill-16" fill="#000000"></path>
            <path d="M37.6483417,185.301177 C41.2450203,194.756532 46.1645331,203.845051 52.3139241,212.34963 C43.9121399,197.16716 39.0712822,179.544117 39.0712822,160.730731 C39.0712822,158.043105 39.1999903,155.377938 39.4002031,152.742716 C37.526784,163.53814 36.961898,174.475807 37.6483417,185.301177" id="Fill-17" fill="#131313"></path>
            <path d="M0.276351586,145.291852 L0.0536732869,152.908979 C-0.940426265,186.962455 11.9351511,218.265717 33.6303797,242.153086 C20.651416,222.156265 13.0485426,198.805523 12.1657822,174.679652 C7.71221623,165.720956 3.71991243,155.942414 0.276351586,145.291852" id="Fill-18" fill="#131313"></path>
            <path d="M275.608766,149.843176 C275.512256,149.014018 275.38605,148.18486 275.252421,147.355702 C275.170759,146.843131 275.09652,146.323023 275.022282,145.810453 L274.717904,143.790322 L274.339288,141.838032 C274.235354,141.340537 274.146268,140.835504 274.049758,140.330472 C273.901281,139.508852 273.752804,138.687231 273.559784,137.873149 L272.602107,133.885653 C272.475902,133.282629 272.312577,132.739907 272.141828,132.189648 L270.352681,126.144332 C270.189356,125.654375 270.026032,125.164418 269.870131,124.666923 C269.61772,123.875454 269.365309,123.083985 269.075779,122.300054 C268.593229,121.033703 268.110679,119.74474 267.635552,118.448238 C265.475212,113.073786 263.23321,108.257132 260.805611,103.779679 C258.23696,99.1439317 255.289692,94.5157224 252.060318,90.0307313 C248.778976,85.6588072 245.542178,81.7768401 242.20887,78.2340741 C258.830868,103.862595 266.544246,138.408333 264.562079,156.762876 C264.472993,157.584496 263.797422,158.202596 262.980799,158.202596 L262.973375,158.202596 C262.156752,158.202596 261.481182,157.569421 261.399519,156.747801 C260.998631,152.46633 260.063227,148.094406 258.637848,143.752633 C252.438934,119.398001 238.838443,98.5936723 220.672285,83.5482232 C228.541565,94.342353 234.770174,106.659118 238.838443,120.25731 C239.751576,123.302581 240.516233,126.370466 241.176955,129.430813 C243.916356,138.800298 245.408549,148.712506 245.408549,158.986527 C245.408549,216.334111 199.61825,262.827262 143.130185,262.827262 C124.073165,262.827262 106.233657,257.513113 90.9627999,248.294383 L90.9405283,248.332072 C90.6732698,248.166241 90.4208589,247.992871 90.1610242,247.82704 C89.878918,247.65367 89.6116594,247.465225 89.3295531,247.291856 C88.5723206,246.801899 87.8076642,246.31948 87.0652793,245.814447 C86.3303183,245.332028 85.6102049,244.834533 84.8900916,244.321963 C66.4195559,231.507703 51.9207793,215.437113 42.3217429,197.625291 C35.3359012,182.994421 31.1859698,166.690159 30.6588765,149.390908 C29.9610347,126.227248 35.8184514,104.412854 46.5310651,85.7718742 C27.9194763,109.749617 17.3553396,140.383236 18.8178378,173.36865 C19.4711365,188.089974 22.5446099,202.170584 27.6002508,215.24113 C35.7070937,237.907295 49.5377239,258.078448 67.7558487,272.920377 C90.1832957,290.96587 118.52755,301.76 149.366218,301.76 C177.777287,301.76 204.057712,292.586497 225.557178,277.036015 C239.744153,265.774542 251.696549,251.490411 260.285942,235.449972 C260.323061,235.321829 260.375028,235.193687 260.441843,235.073082 L261.184228,233.753967 C270.605092,215.580331 275.653309,195.831294 276.165554,175.109882 C276.150707,175.034504 276.143283,174.959126 276.143283,174.913899 C276.128435,174.408866 276.121011,173.903834 276.150707,173.398801 C276.343727,170.768109 276.462508,168.408777 276.514475,166.1399 C276.544171,160.886053 276.239793,155.398534 275.608766,149.843176 Z" id="Fill-19" fill="#000000"></path>
        </g>
    </g>
</svg>