<?xml version="1.0" standalone="no"?>
<!DOCTYPE svg PUBLIC "-//W3C//DTD SVG 20010904//EN"
 "http://www.w3.org/TR/2001/REC-SVG-20010904/DTD/svg10.dtd">
<svg version="1.0" xmlns="http://www.w3.org/2000/svg"
 width="1212.000000pt" height="1212.000000pt" viewBox="0 0 1212.000000 1212.000000"
 preserveAspectRatio="xMidYMid meet">
<metadata>
Created by potrace 1.14, written by Peter Selinger 2001-2017
</metadata>
<g transform="translate(0.000000,1212.000000) scale(0.100000,-0.100000)"
fill="#000000" stroke="none">
<path d="M6604 12099 c-141 -23 -269 -90 -380 -196 l-34 -33 -148 -1 c-182 -1
-349 -10 -467 -25 -16 -2 -55 -6 -85 -9 -30 -3 -62 -8 -70 -10 -8 -2 -31 -7
-50 -10 -126 -20 -231 -42 -340 -70 -132 -34 -384 -128 -438 -163 -19 -13 -22
-21 -18 -51 15 -102 56 -222 120 -356 162 -336 458 -588 846 -720 109 -37 142
-60 135 -98 -9 -47 -41 -59 -135 -53 -90 7 -104 9 -215 32 -70 14 -170 44
-235 69 -283 109 -482 212 -672 348 -133 95 -208 162 -327 292 -41 44 -43 46
-37 19 25 -98 151 -310 271 -453 293 -351 844 -684 1255 -757 125 -23 150 -26
255 -38 173 -18 232 -23 383 -31 67 -3 130 -8 140 -10 11 -2 52 -6 93 -9 178
-15 477 -69 679 -122 184 -49 489 -151 605 -203 11 -5 45 -20 75 -32 67 -29
362 -176 445 -223 248 -139 505 -321 742 -525 144 -123 168 -154 297 -386 113
-204 240 -477 303 -650 74 -206 153 -461 169 -540 9 -51 29 -129 56 -229 16
-59 31 -118 34 -130 2 -11 6 -32 9 -46 3 -14 7 -34 9 -45 3 -11 9 -40 14 -65
25 -107 56 -326 69 -485 16 -181 8 -656 -12 -790 -2 -16 -7 -52 -10 -80 -5
-44 -13 -100 -31 -210 -6 -38 -14 -78 -29 -150 -3 -11 -7 -29 -9 -40 -45 -205
-154 -540 -234 -715 -8 -19 -16 -37 -17 -40 -12 -39 -123 -263 -191 -381 -45
-81 -174 -288 -194 -312 -5 -7 -53 -70 -106 -142 -185 -249 -443 -519 -669
-700 -28 -22 -52 -43 -55 -46 -25 -29 -358 -259 -465 -320 -33 -19 -68 -38
-77 -44 -269 -155 -733 -340 -1008 -401 -11 -2 -28 -6 -37 -8 -67 -17 -269
-56 -318 -61 -33 -4 -62 -9 -65 -10 -3 -2 -41 -6 -85 -10 -44 -4 -82 -9 -85
-10 -8 -5 -259 -18 -350 -18 -100 0 -411 12 -419 17 -3 2 -38 7 -76 10 -39 4
-82 9 -95 11 -14 3 -43 8 -65 10 -22 3 -53 8 -70 12 -16 3 -39 7 -50 8 -45 6
-260 58 -372 89 -293 84 -616 220 -873 368 -52 30 -99 57 -105 59 -43 18 -375
252 -535 378 -558 440 -1036 990 -1358 1566 -218 389 -422 1058 -477 1560 -3
22 -7 56 -9 75 -3 19 -8 78 -11 130 -4 52 -8 113 -10 135 -6 54 -6 461 -1 505
3 19 7 82 10 140 4 58 8 116 10 130 3 14 7 48 11 75 10 81 15 119 20 140 2 11
7 43 10 70 6 44 26 144 69 340 16 71 90 329 112 389 9 22 21 59 29 81 57 175
216 528 322 713 31 56 22 48 -39 -33 -111 -148 -254 -369 -353 -545 -55 -98
-215 -413 -215 -424 0 -2 -13 -33 -29 -68 -141 -310 -279 -758 -350 -1143 -19
-104 -24 -133 -36 -222 -3 -21 -7 -51 -10 -68 -4 -28 -9 -77 -20 -180 -14
-131 -20 -290 -20 -515 0 -226 5 -332 20 -490 2 -25 7 -72 10 -105 3 -33 8
-71 10 -85 2 -14 7 -45 10 -70 9 -70 27 -176 40 -240 3 -14 8 -41 11 -60 18
-108 106 -437 164 -612 43 -126 158 -438 186 -503 10 -22 18 -42 19 -45 0 -3
13 -31 28 -64 15 -32 27 -60 27 -63 0 -7 158 -321 187 -372 82 -143 164 -278
222 -366 65 -100 237 -338 277 -385 12 -14 50 -59 84 -100 227 -273 503 -537
785 -749 66 -50 125 -94 130 -98 28 -24 258 -173 310 -203 33 -18 66 -38 74
-44 41 -33 417 -224 570 -291 178 -76 350 -139 591 -214 55 -16 276 -75 330
-86 78 -17 232 -47 260 -51 19 -2 60 -8 90 -14 82 -13 120 -19 186 -25 32 -3
68 -7 79 -10 125 -26 869 -27 1025 -1 14 2 54 7 90 10 36 3 74 8 85 10 11 2
47 7 80 10 33 4 67 9 75 11 8 2 29 7 46 9 17 3 66 13 110 21 43 9 90 18 104
21 14 2 63 14 110 25 47 12 92 22 100 24 331 77 884 297 1210 482 138 79 279
166 390 241 149 101 173 119 312 239 103 89 128 107 112 82 -3 -6 6 -3 22 7
137 89 221 145 234 156 8 7 32 25 55 39 37 24 273 205 285 219 3 3 34 30 69
60 197 167 441 415 611 620 34 41 69 84 78 95 107 128 336 464 440 645 103
181 243 464 292 590 11 30 28 71 37 90 15 32 119 325 128 360 3 8 16 53 30
100 28 92 101 384 110 440 3 19 10 55 15 80 5 25 17 88 25 140 9 52 18 109 21
125 3 17 7 44 9 60 8 72 16 142 20 165 15 102 25 332 25 555 -1 184 -6 284
-24 455 -2 19 -7 64 -11 100 -3 36 -9 79 -11 95 -3 17 -7 41 -9 55 -11 77 -35
204 -60 324 -32 151 -105 394 -171 576 -72 196 -126 335 -134 340 -4 3 -40 73
-81 155 -147 294 -367 636 -564 874 -151 184 -382 426 -535 561 -40 36 -78 70
-84 75 -145 130 -458 352 -675 479 -104 61 -381 202 -471 240 -150 63 -419
161 -500 182 -8 2 -40 11 -70 19 -53 15 -233 62 -275 71 -18 4 -72 15 -145 29
-14 3 -47 9 -75 14 -134 27 -366 53 -576 66 -47 3 -95 7 -107 10 -329 63 -664
330 -785 625 -52 128 -68 211 -68 350 0 103 4 133 26 225 9 33 17 68 20 78 8
35 80 193 112 249 18 31 33 59 33 62 0 8 -53 6 -116 -5z m2587 -2637 c106 -68
353 -286 545 -482 224 -228 295 -318 370 -465 238 -468 433 -1028 539 -1548 2
-10 6 -26 9 -35 3 -9 8 -37 11 -62 3 -25 8 -52 10 -60 2 -8 6 -28 9 -45 3 -16
7 -43 10 -60 4 -28 24 -166 31 -225 19 -154 27 -582 12 -642 -4 -15 -19 -35
-32 -44 -21 -14 -30 -14 -55 -4 -36 15 -34 10 -55 160 -11 79 -15 103 -35 185
-22 96 -108 398 -155 545 -32 102 -42 139 -51 190 -39 213 -181 676 -294 961
-249 624 -542 1104 -912 1493 -47 49 -68 79 -68 97 0 35 25 63 61 68 3 1 25
-12 50 -27z m729 -7725 c0 -2 -12 -14 -27 -28 l-28 -24 24 28 c23 25 31 32 31
24z m-129 -146 c-87 -97 -322 -333 -326 -329 -4 3 386 406 394 407 2 1 -29
-34 -68 -78z"/>
<path d="M2659 10765 c-3 -2 -17 -6 -32 -9 -118 -21 -227 -149 -227 -266 0
-26 2 -27 69 -33 129 -11 317 -88 468 -192 137 -94 146 -103 90 -80 -27 11
-258 -238 -339 -365 -62 -97 -135 -248 -144 -295 -1 -5 -7 -30 -14 -55 -14
-51 -19 -82 -25 -159 -6 -69 -12 -74 -20 -17 -19 126 6 312 63 471 59 165 192
374 301 473 29 27 23 35 -44 53 -99 27 -136 31 -159 15 -24 -15 -148 -141
-189 -191 -87 -107 -172 -276 -192 -382 -3 -16 -7 -39 -10 -53 -10 -42 -7
-233 4 -280 5 -25 12 -59 16 -77 8 -49 52 -165 102 -272 31 -65 46 -111 47
-141 l1 -46 43 -1 c27 -1 80 -19 150 -51 140 -64 208 -88 312 -110 99 -21 275
-22 360 -3 74 17 189 60 222 83 14 10 30 18 35 18 22 0 180 127 259 207 81 83
86 89 81 123 -5 32 -2 37 33 62 80 56 121 159 116 291 -7 171 -73 338 -221
562 -94 143 -110 186 -110 297 l0 88 -70 0 c-74 1 -144 13 -185 32 -14 7 -74
44 -135 84 -225 146 -393 211 -566 219 -48 2 -88 2 -90 0z"/>
<path d="M160 6177 c-10 -405 -1 -687 31 -932 6 -49 13 -101 14 -115 6 -53 51
-292 80 -420 55 -247 156 -551 286 -860 88 -208 292 -580 440 -802 111 -165
295 -407 395 -518 12 -14 34 -38 49 -55 l26 -30 -23 40 c-13 23 -28 50 -35 60
-455 737 -731 1621 -778 2487 -4 75 -10 99 -44 170 -21 46 -52 112 -69 148
-44 96 -151 346 -177 415 -64 170 -139 377 -156 432 -11 34 -23 65 -28 68 -5
2 -10 -37 -11 -88z"/>
<path d="M1706 5858 c-42 -307 -51 -459 -51 -833 l0 -320 29 -70 c16 -38 41
-98 57 -133 16 -35 29 -65 29 -68 0 -10 148 -301 174 -342 14 -23 26 -44 26
-47 0 -14 245 -395 254 -395 2 0 -27 60 -64 133 -68 135 -145 316 -199 467
-38 109 -109 344 -117 390 -3 19 -10 49 -14 65 -5 17 -11 41 -14 55 -3 14 -14
70 -25 125 -28 142 -56 364 -66 530 -8 119 -8 463 0 475 3 5 2 10 -3 10 -5 0
-12 -19 -16 -42z"/>
</g>
</svg>
