<svg xmlns="http://www.w3.org/2000/svg" width="18.04" height="18.04" viewBox="0 0 18.04 18.04">
  <path id="arroba" d="M9.049,18.04H9.034a9.414,9.414,0,0,1-1.21-.078,9.069,9.069,0,0,1-7.74-7.745A9,9,0,0,1,7.791.085,9.158,9.158,0,0,1,9.028,0a9.039,9.039,0,0,1,8.515,11.992,3.011,3.011,0,0,1-2.83,1.986h-.028a3.058,3.058,0,0,1-2.73-1.719,4.35,4.35,0,1,1-.314-6.684V5.567a.872.872,0,0,1,1.744,0v5.375a1.3,1.3,0,0,0,1.3,1.3h.03a1.266,1.266,0,0,0,1.18-.816A7.25,7.25,0,0,0,9.986,1.859,7.249,7.249,0,0,0,6.112,15.688a7.288,7.288,0,0,0,6.658-.425.873.873,0,0,1,1.2.3.87.87,0,0,1-.3,1.194A8.945,8.945,0,0,1,9.049,18.04Zm-.024-11.6a2.616,2.616,0,1,0,1,.2A2.6,2.6,0,0,0,9.025,6.438Z" transform="translate(0.001 0)"/>
</svg>
