<svg id="Group" xmlns="http://www.w3.org/2000/svg" width="164.82" height="53.3" viewBox="0 0 164.82 53.3">
  <path id="Fill_135" data-name="Fill 135" d="M164.82,46.1a7.245,7.245,0,0,1-7.284,7.2H7.286A7.246,7.246,0,0,1,0,46.1V7.2A7.245,7.245,0,0,1,7.286,0h150.25a7.244,7.244,0,0,1,7.284,7.2V46.1" fill="#1a1919"/>
  <path id="Fill_136" data-name="Fill 136" d="M31.924,18.347A26.29,26.29,0,0,1,29.511,22.8c-1.568,2.36-3.777,5.3-6.514,5.322-2.433.022-3.058-1.565-6.359-1.547s-3.99,1.575-6.424,1.553c-2.737-.025-4.831-2.678-6.4-5.037C-.567,16.5-1.025,8.755,1.678,4.64A9.719,9.719,0,0,1,9.48,0c2.9,0,4.725,1.573,7.124,1.573C18.931,1.576,20.349,0,23.7,0A9.5,9.5,0,0,1,30.84,3.725a8.036,8.036,0,0,0,1.084,14.622" transform="translate(11.056 16.884)" fill="#fffffe"/>
  <path id="Fill_137" data-name="Fill 137" d="M5.814,5.963A7.989,7.989,0,0,0,7.623,0a8.827,8.827,0,0,0-5.68,3.02A7.416,7.416,0,0,0,.087,8.837,7.456,7.456,0,0,0,5.814,5.963" transform="translate(26.401 8.286)" fill="#fffffe"/>
  <path id="Fill_138" data-name="Fill 138" d="M2.875,18.272H0L6.279,0H9.406l6.306,18.27H12.757L10.83,12.661H4.75L2.875,18.272ZM7.769,3h0c-.226.908-.468,1.765-.72,2.545L5.38,10.427H10.2L8.5,5.582C8.226,4.718,8.009,3.927,7.769,3Z" transform="translate(50.055 21.424)" fill="#fffffe"/>
  <path id="Fill_139" data-name="Fill 139" d="M2.919,18.775H.122V4.691C.122,2.885.09,1.639.015.524L0,.291H2.558l.112,1.818A5.27,5.27,0,0,1,7.115,0a5.346,5.346,0,0,1,4.11,1.873,7.3,7.3,0,0,1,1.625,4.855,7.5,7.5,0,0,1-1.871,5.318,5.8,5.8,0,0,1-4.237,1.781A4.942,4.942,0,0,1,2.919,12.2v6.572Zm3.5-16.486a3.534,3.534,0,0,0-3.37,2.686c-.009.06-.021.122-.032.182L3.007,5.2V5.2a4.083,4.083,0,0,0-.087.677V8.1a3.479,3.479,0,0,0,.1.895,3.386,3.386,0,0,0,3.295,2.565c2.291,0,3.714-1.813,3.714-4.73C10.027,4.571,8.911,2.289,6.418,2.289Z" transform="translate(66.778 26.16)" fill="#fffffe"/>
  <path id="Fill_140" data-name="Fill 140" d="M2.919,18.775H.122V4.691C.122,2.9.089,1.649.014.524L0,.291H2.557l.112,1.818A5.273,5.273,0,0,1,7.115,0a5.345,5.345,0,0,1,4.109,1.873,7.3,7.3,0,0,1,1.625,4.855,7.509,7.509,0,0,1-1.87,5.318A5.805,5.805,0,0,1,6.74,13.827,4.941,4.941,0,0,1,2.919,12.2v6.572Zm3.5-16.486a3.53,3.53,0,0,0-3.37,2.686c-.008.048-.018.1-.027.147L3.008,5.2a4.1,4.1,0,0,0-.089.686V8.1a3.486,3.486,0,0,0,.1.895,3.386,3.386,0,0,0,3.295,2.565c2.291,0,3.714-1.813,3.714-4.73C10.026,4.571,8.91,2.289,6.418,2.289Z" transform="translate(81.178 26.16)" fill="#fffffe"/>
  <path id="Fill_141" data-name="Fill 141" d="M6.657,8.033c-2.61-1-3.446-1.785-3.446-3.237,0-1.222.983-2.455,3.179-2.455a6.414,6.414,0,0,1,3.283.815L9.91,3.3,10.7.993,10.543.9A8.18,8.18,0,0,0,6.47,0C2.9,0,.414,2.081.414,5.06c0,2.4,1.56,4.082,4.908,5.285,2.373.877,3.257,1.775,3.257,3.315,0,1.743-1.363,2.825-3.554,2.825a7.718,7.718,0,0,1-4.031-1.13L.751,15.2,0,17.562l.138.09a9.661,9.661,0,0,0,4.726,1.2c4.806,0,6.51-2.9,6.51-5.378,0-2.558-1.366-4.135-4.717-5.442" transform="translate(99.675 21.133)" fill="#fffffe"/>
  <path id="Fill_142" data-name="Fill 142" d="M4.751,0,2.008.851v2.3H0V5.357H2.008v6.768a5.132,5.132,0,0,0,.968,3.508,3.607,3.607,0,0,0,2.706,1.05,6.647,6.647,0,0,0,2.162-.33L8,16.3l-.134-2.213-.268.081a4.259,4.259,0,0,1-1.3.149c-1.083,0-1.546-.678-1.546-2.269V5.357H8.124V3.148H4.751V0" transform="translate(111.333 23.303)" fill="#fffffe"/>
  <path id="Fill_143" data-name="Fill 143" d="M6.457,13.827H6.431c-3.786,0-6.43-2.8-6.43-6.808C0,2.886,2.732,0,6.645,0a6.256,6.256,0,0,1,4.675,1.891A6.939,6.939,0,0,1,13.1,6.781C13.1,11.622,9.657,13.827,6.457,13.827ZM6.564,2.183c-2.584,0-3.74,2.39-3.74,4.758,0,2.725,1.539,4.7,3.66,4.7h.027c2.152,0,3.714-2.012,3.714-4.784C10.225,4.608,9.079,2.183,6.564,2.183Z" transform="translate(119.742 26.16)" fill="#fffffe"/>
  <path id="Fill_144" data-name="Fill 144" d="M6.961.129,6.793.087A2.711,2.711,0,0,0,6.1,0,3.992,3.992,0,0,0,2.592,2.226L2.509.291H0L.016.523C.091,1.618.122,2.847.122,4.5L.1,13.536h2.8V6.49a7.05,7.05,0,0,1,.077-1.072A3.076,3.076,0,0,1,5.911,2.632a7.149,7.149,0,0,1,.75.047l.3.03V.129" transform="translate(134.448 26.16)" fill="#fffffe"/>
  <path id="Fill_145" data-name="Fill 145" d="M6.591,13.827c-4,0-6.591-2.62-6.591-6.675C0,2.941,2.6,0,6.323,0c4.095,0,5.548,3.368,5.548,6.252a6.008,6.008,0,0,1-.085,1.154l-.036.176L2.723,7.556a3.875,3.875,0,0,0,4.189,4.009,8.76,8.76,0,0,0,3.5-.619l.233-.094.537,2.06-.168.076A10.834,10.834,0,0,1,6.591,13.827ZM6.136,2.1c-2.076,0-3.1,1.729-3.362,3.348H9.152a3.865,3.865,0,0,0-.963-2.574A2.778,2.778,0,0,0,6.136,2.1Z" transform="translate(141.373 26.134)" fill="#fffffe"/>
  <path id="Fill_146" data-name="Fill 146" d="M2.293,8.789A19.677,19.677,0,0,1,0,8.687V.18A20.45,20.45,0,0,1,2.682,0,6.024,6.024,0,0,1,6.62,1.066,3.785,3.785,0,0,1,8,4.183a4.349,4.349,0,0,1-1.4,3.362A6.514,6.514,0,0,1,2.293,8.789Zm.447-7.9A7.9,7.9,0,0,0,1.269,1V7.84a9.159,9.159,0,0,0,1.269.051h.037a4.41,4.41,0,0,0,3.048-.963A3.478,3.478,0,0,0,6.677,4.221,3.125,3.125,0,0,0,5.842,1.9,4.223,4.223,0,0,0,2.741.885Z" transform="translate(50.055 8.762)" fill="#fffffe"/>
  <path id="Fill_147" data-name="Fill 147" d="M3.361,6.493H3.345A3.131,3.131,0,0,1,0,3.3,3.166,3.166,0,0,1,1.011.869,3.628,3.628,0,0,1,3.461,0,3.1,3.1,0,0,1,6.821,3.182,3.132,3.132,0,0,1,5.713,5.7,3.7,3.7,0,0,1,3.361,6.493ZM3.418.847A2.176,2.176,0,0,0,1.283,3.259,2.179,2.179,0,0,0,3.374,5.646h.014A2.213,2.213,0,0,0,5.509,3.22,2.162,2.162,0,0,0,3.418.847Z" transform="translate(59.211 11.123)" fill="#fffffe"/>
  <path id="Fill_148" data-name="Fill 148" d="M1.3,0l.937,3.144c.187.692.375,1.347.5,1.989h.043c.159-.629.389-1.3.62-1.976L4.543,0H5.61L6.692,3.105c.259.731.461,1.4.62,2.028h.043a16.947,16.947,0,0,1,.534-2.014L8.883,0h1.255L7.889,6.21H6.735L5.668,3.247a20.179,20.179,0,0,1-.621-2.053H5.019a16.933,16.933,0,0,1-.635,2.066L3.26,6.21H2.106L0,0H1.3" transform="translate(66.742 11.264)" fill="#fffffe"/>
  <path id="Fill_149" data-name="Fill 149" d="M.058,1.822C.058,1.167.044.655,0,.141H1.125L1.2,1.155h.029A2.652,2.652,0,0,1,3.533,0,2.376,2.376,0,0,1,6,2.643V6.351H4.731V2.771c0-1-.419-1.847-1.616-1.847a1.81,1.81,0,0,0-1.7,1.154,1.506,1.506,0,0,0-.087.526V6.351H.058V1.822" transform="translate(78.092 11.123)" fill="#fffffe"/>
  <path id="Fill_150" data-name="Fill 150" d="M0,9.11H1.269V0H0Z" transform="translate(86.154 8.365)" fill="#fffffe"/>
  <path id="Fill_151" data-name="Fill 151" d="M3.36,6.493H3.345A3.131,3.131,0,0,1,0,3.3,3.166,3.166,0,0,1,1.011.869,3.628,3.628,0,0,1,3.461,0,3.1,3.1,0,0,1,6.82,3.182,3.132,3.132,0,0,1,5.712,5.7,3.7,3.7,0,0,1,3.36,6.493ZM3.417.847A2.176,2.176,0,0,0,1.283,3.259,2.179,2.179,0,0,0,3.374,5.646h.013A2.213,2.213,0,0,0,5.508,3.22,2.162,2.162,0,0,0,3.417.847Z" transform="translate(89.024 11.123)" fill="#fffffe"/>
  <path id="Fill_152" data-name="Fill 152" d="M2.135,6.493A1.886,1.886,0,0,1,0,4.709C0,3.219,1.468,2.4,4.135,2.4H4.2V2.271c0-.655-.27-1.437-1.557-1.437H2.61A3.66,3.66,0,0,0,.779,1.3L.49.539A4.977,4.977,0,0,1,2.8,0C5,0,5.465,1.382,5.465,2.541V4.863a9.285,9.285,0,0,0,.1,1.489H4.427l-.116-.783H4.269A2.688,2.688,0,0,1,2.135,6.493ZM4.018,3.18a5.249,5.249,0,0,0-1.873.27A1.186,1.186,0,0,0,1.269,4.58,1.058,1.058,0,0,0,2.452,5.658,1.757,1.757,0,0,0,4.167,4.619a1.007,1.007,0,0,0,.058-.359V3.182Z" transform="translate(96.899 11.123)" fill="#fffffe"/>
  <path id="Fill_153" data-name="Fill 153" d="M3,9.251A2.98,2.98,0,0,1,0,6.095,3.339,3.339,0,0,1,.921,3.653a3.08,3.08,0,0,1,2.208-.894A2.407,2.407,0,0,1,5.235,3.7h.029V0H6.533V7.505c0,.653.021,1.238.058,1.6H5.451L5.395,8.032h-.03A2.621,2.621,0,0,1,3,9.251Zm.375-5.607A2.133,2.133,0,0,0,1.283,6.031,2.057,2.057,0,0,0,3.346,8.339,1.877,1.877,0,0,0,5.206,6.993a1.721,1.721,0,0,0,.059-.488V5.427a1.852,1.852,0,0,0-.059-.487A1.844,1.844,0,0,0,3.375,3.644Z" transform="translate(103.893 8.365)" fill="#fffffe"/>
  <path id="Fill_154" data-name="Fill 154" d="M3.361,6.493H3.345A3.131,3.131,0,0,1,0,3.3,3.166,3.166,0,0,1,1.011.869,3.628,3.628,0,0,1,3.461,0,3.1,3.1,0,0,1,6.821,3.182,3.132,3.132,0,0,1,5.713,5.7,3.7,3.7,0,0,1,3.361,6.493ZM3.418.847A2.176,2.176,0,0,0,1.284,3.259a2.179,2.179,0,0,0,2.09,2.387h.015A2.212,2.212,0,0,0,5.509,3.22,2.162,2.162,0,0,0,3.418.847Z" transform="translate(115.084 11.123)" fill="#fffffe"/>
  <path id="Fill_155" data-name="Fill 155" d="M.058,1.822C.058,1.167.043.655,0,.141H1.125L1.2,1.155h.028A2.652,2.652,0,0,1,3.533,0,2.376,2.376,0,0,1,6,2.643V6.351H4.73V2.771c0-1-.418-1.847-1.615-1.847a1.811,1.811,0,0,0-1.7,1.154,1.514,1.514,0,0,0-.086.526V6.351H.058V1.822" transform="translate(123.449 11.123)" fill="#fffffe"/>
  <path id="Fill_156" data-name="Fill 156" d="M2.322,0V1.488H4.138v.86H2.322V5.7c0,.77.246,1.206.952,1.206a2.654,2.654,0,0,0,.735-.077l.057.86a3.855,3.855,0,0,1-1.125.154,1.936,1.936,0,0,1-1.37-.474,2.239,2.239,0,0,1-.49-1.63V2.347H0v-.86H1.082V.346L2.322,0" transform="translate(133.776 9.776)" fill="#fffffe"/>
  <path id="Fill_157" data-name="Fill 157" d="M0,0H1.269V3.875H1.3a2.15,2.15,0,0,1,.909-.8,2.706,2.706,0,0,1,1.3-.321A2.374,2.374,0,0,1,5.942,5.414v3.7H4.673V5.543c0-1.014-.418-1.848-1.615-1.848a1.824,1.824,0,0,0-1.7,1.129,1.226,1.226,0,0,0-.087.539V9.11H0V0" transform="translate(139.343 8.365)" fill="#fffffe"/>
  <path id="Fill_158" data-name="Fill 158" d="M3.433,6.493C1.347,6.493,0,5.264,0,3.362A3.181,3.181,0,0,1,3.288,0a2.726,2.726,0,0,1,2.87,2.926,2.51,2.51,0,0,1-.043.538L1.226,3.451a2.115,2.115,0,0,0,2.38,2.155A5.317,5.317,0,0,0,5.539,5.3l.23.8A6.292,6.292,0,0,1,3.433,6.493ZM3.187.808A1.953,1.953,0,0,0,1.24,2.643H4.933A1.969,1.969,0,0,0,4.44,1.274,1.682,1.682,0,0,0,3.187.808Z" transform="translate(146.842 11.11)" fill="#fffffe"/>
</svg>
