<?xml version="1.0" encoding="UTF-8"?>
<svg width="250px" height="252px" viewBox="0 0 250 252" version="1.1" xmlns="http://www.w3.org/2000/svg" xmlns:xlink="http://www.w3.org/1999/xlink">
    <title>rotated-right-arrow-with-broken-line</title>
    <g id="Page-1" stroke="none" stroke-width="1" fill="none" fill-rule="evenodd">
        <g id="rotated-right-arrow-with-broken-line" transform="translate(125.146967, 126.276920) scale(-1, 1) rotate(-229.000000) translate(-125.146967, -126.276920) translate(30.049631, 44.064914)" fill="#000000">
            <path d="M19.9034345,6.40100182 C14.2126076,3.48717021 7.67224428,8.17272858 1.99208096,9.35143936 C0.563153772,9.35143936 0.285899242,14.0369977 1.99208096,14.6080502 C7.67224428,15.1864238 14.5040803,14.6080502 19.9034345,11.6942185 C21.040889,10.522829 21.040889,7.00133899 19.9034345,6.40100182 Z" id="Fill-1"></path>
            <path d="M18.6269237,17.1124558 C18.7771272,10.7412646 11.8808512,6.71525435 8.43482498,2.03281988 C7.82881675,0.733231033 3.58872611,2.40342857 3.80988749,4.18946365 C5.70997363,9.59278183 9.11622821,15.568948 13.9697791,19.284118 C15.4828005,19.8380275 18.5811221,18.3932564 18.6269237,17.1124558 Z" id="Fill-1" transform="translate(11.215437, 10.488062) rotate(-65.000000) translate(-11.215437, -10.488062) "></path>
            <path d="M62.4593275,17.7294614 C57.6763871,11.9588473 50.1315878,10.7086337 43.9741408,11.1322598 C42.6039162,11.1322598 42.6039162,13.5965238 43.9741408,13.5965238 C47.3868566,14.0201499 50.4827078,14.8467374 53.5614313,16.0762864 C56.3018806,17.3265 58.6954917,18.9848412 61.435941,20.2143901 C62.4593275,21.0409776 63.4955599,18.9848412 62.4593275,17.7294614 Z" id="Fill-3"></path>
            <path d="M91.7834032,41.3806235 C90.4257138,38.3348366 87.7060922,35.6513424 84.9907135,33.6292432 C82.6189998,31.2574894 79.5684415,29.2353902 76.8530627,27.5545202 C75.8220673,26.8804871 74.8122858,28.232766 75.8220673,28.906799 C78.5416889,30.9288982 80.9261309,33.2838013 82.9499366,35.6513424 C85.3386214,38.0062454 87.0272476,41.0351815 89.4116895,43.4027227 C90.4257138,44.7381507 92.4622479,43.0572807 91.7834032,41.3806235 Z" id="Fill-4"></path>
            <path d="M100.194637,62.0431031 C98.8046089,60.4037379 95.5592708,61.7226257 96.9434831,63.3578822 C97.874046,65.0095735 99.2815224,66.9858508 100.194637,68.6211074 C101.1252,70.9178621 100.671551,73.2269429 102.055763,75.2032203 C102.532677,76.1810872 104.853268,76.1810872 105.330181,75.2032203 C107.644957,71.5752517 102.986326,65.6669631 100.194637,62.0431031 Z" id="Fill-5"></path>
            <path d="M108.265162,94.4138839 C108.265162,91.0891076 108.265162,87.747645 106.769482,84.7482546 C106.040338,83.0712658 101.54395,83.0712658 101.54395,84.7482546 C100.814806,87.747645 100.814806,90.4216494 100.814806,93.4168682 C100.814806,96.4162585 99.3191265,99.4323353 101.54395,102.431726 C102.310486,103.766642 107.536018,103.766642 108.265162,102.431726 C109.760842,99.7577212 109.031698,97.0837167 108.265162,94.4138839 Z" id="Fill-6"></path>
            <path d="M102.606772,125.154817 C101.367307,128.174362 100.123969,131.205273 98.2647723,134.239973 C96.7193149,136.964004 94.5425053,139.699401 94.2403858,142.734101 C93.9227731,144.245768 96.0995827,144.541282 97.0253078,143.935099 C99.5042369,141.81725 100.743701,138.176369 101.987039,135.156823 C103.528623,132.122124 104.465968,129.091213 105.089574,126.056513 C105.391693,124.234178 102.908891,123.627996 102.606772,125.154817 Z" id="Fill-7"></path>
            <g id="Group-11" transform="translate(54.155093, 147.909213)">
                <path d="M33.0362765,0.443395379 C31.2421978,2.90914704 29.4593322,5.74166821 27.6652535,7.86274491 C26.7607388,8.91886435 25.5609487,9.98824051 24.3648963,10.6952661 C23.1688439,11.4022916 22.5820306,11.4022916 21.677516,12.803086 C21.0794898,13.8724622 21.677516,15.2865133 22.5820306,15.6311883 C25.269411,16.3382139 27.6652535,13.1654366 29.4593322,11.039941 C31.5486863,8.21183878 33.0362765,5.03464265 34.542555,1.49509591 C34.8340928,0.443395379 33.6380404,-0.625980789 33.0362765,0.443395379 Z" id="Fill-8"></path>
                <path d="M10.0122671,9.28121495 C8.52467686,10.6952661 6.72686054,11.7469666 4.93278188,11.7469666 C3.441454,11.7469666 1.64737535,11.4022916 0.451322912,12.803086 C-0.150440971,13.5101116 -0.150440971,14.5794878 0.451322912,15.2865133 C3.441454,18.8260601 9.41424086,13.8724622 11.2120572,11.039941 C11.8100834,9.98824051 10.9167817,8.57418938 10.0122671,9.28121495 Z" id="Fill-10"></path>
            </g>
            <path d="M45.2083887,151.140108 C42.3176909,150.822139 39.0617099,150.201711 36.1890507,149.278826 C32.92856,148.034094 31.485466,145.854844 29.6906177,143.384768 C28.6128068,142.143913 26.4481657,142.446372 26.0783729,144.307653 C25.7266187,152.687298 37.983899,154.23061 45.2083887,153.307725 C46.2816899,152.989756 46.2816899,151.140108 45.2083887,151.140108 Z" id="Fill-12"></path>
            <path d="M24.4925125,132.96441 C20.3424176,127.371162 21.3847972,121.759255 19.8115163,115.797478 C19.3065125,114.304701 16.1987972,114.304701 15.6678958,115.797478 C14.1205125,122.141779 16.7038009,128.863939 21.8898009,134.074663 C22.925706,135.203575 24.9975163,134.457187 24.4925125,132.96441 Z" id="Fill-13"></path>
            <path d="M34.3752373,85.4639393 C27.5048304,82.3142236 20.4395752,84.1979106 14.5586487,87.2841374 C13.5244598,87.7663876 14.473545,89.8017073 15.5077338,89.3194571 C21.1301194,87.0416015 27.4232894,86.2278005 33.6115509,87.9231683 C35.1991938,88.5937338 35.9545515,86.1251614 34.3752373,85.4639393 Z" id="Fill-14" transform="translate(24.679455, 86.616605) rotate(-65.000000) translate(-24.679455, -86.616605) "></path>
            <path d="M48.3344207,56.7099318 C42.3263727,59.7336184 37.635329,65.4487645 33.9644409,71.168116 C32.9484662,72.5138457 35.30235,73.8595755 35.9713045,72.5138457 C39.9724889,67.4715645 45.0021908,63.4301698 49.6723297,59.0607535 C51.0144198,57.7150237 49.6723297,56.0370669 48.3344207,56.7099318 Z" id="Fill-15"></path>
            <path d="M63.2257125,40.0341288 C58.6209517,40.0341288 53.3548471,43.8674173 50.4054999,47.0465338 C49.0869199,48.322967 51.062736,50.2376168 52.3772083,48.9611836 C54.016191,47.3736198 55.9878994,46.0931977 57.9596078,45.1438505 C59.935424,44.1785479 62.2316428,43.5403313 64.2033512,42.2599092 C65.1974209,41.6216926 64.2033512,40.0341288 63.2257125,40.0341288 Z" id="Fill-16"></path>
            <path d="M106.899421,20.0669486 C104.27452,20.0669486 101.645518,21.5296575 99.032921,22.0315074 C95.7517948,23.0107268 92.4665673,23.4880962 89.5176551,25.446535 C87.8688892,26.4257543 88.5251145,29.846902 90.1738804,29.3695325 C93.1227925,28.3903132 96.40802,27.8884632 99.3569322,27.4110938 C101.981833,26.9092439 105.267061,26.9092439 107.559748,24.4673156 C109.192108,23.4880962 108.535883,20.0669486 106.899421,20.0669486 Z" id="Fill-17"></path>
            <path d="M130.963324,23.3455343 C126.710937,21.1113623 121.473141,23.3455343 116.889558,24.0746783 C115.262202,24.0746783 115.262202,29.3282543 116.889558,29.3282543 C121.473141,30.0573983 126.375652,32.3196143 130.963324,30.0573983 C132.59068,29.3282543 132.59068,24.0746783 130.963324,23.3455343 Z" id="Fill-18"></path>
            <g id="Group-22" transform="translate(146.259072, 5.191128)">
                <path d="M15.5384359,18.437826 C13.215514,17.7676622 10.8967476,18.1111212 8.55720376,18.1111212 C6.23843736,18.1111212 3.57476486,18.1111212 1.25599846,18.437826 C-0.418666154,18.437826 -0.418666154,21.1226698 1.25599846,21.1226698 C3.57476486,21.1226698 6.23843736,21.1226698 8.55720376,21.4661287 C10.8967476,21.4661287 13.215514,21.7928336 15.5384359,21.1226698 C16.8681944,21.1226698 16.8681944,19.1079898 15.5384359,18.437826 Z" id="Fill-19"></path>
                <path d="M43.1350804,19.4514488 C38.8175207,15.0995726 34.4999611,11.0744012 29.8374953,7.3926888 C26.5130991,4.71203358 21.5265047,-0.326760537 17.208945,0.0166984139 C15.5384359,0.0166984139 14.2086774,2.02718983 15.2143073,3.6942223 C17.208945,7.04922985 21.8672553,9.06390979 24.8550564,11.0744012 C28.5077368,13.759245 32.1604172,17.0974984 35.8297196,20.4483174 C29.1726161,23.1331612 22.5196681,26.8148736 16.2033152,30.1698811 C14.2086774,31.1835039 15.5384359,34.8652163 17.8779798,34.1950525 C26.1889704,31.5102088 33.4901757,26.1447098 42.141917,24.4734888 C44.1407103,24.1467839 44.4648389,21.1226698 43.1350804,19.4514488 Z" id="Fill-21"></path>
            </g>
        </g>
    </g>
</svg>