<?xml version="1.0" encoding="UTF-8"?>
<svg width="154px" height="161px" viewBox="0 0 154 161" version="1.1" xmlns="http://www.w3.org/2000/svg" xmlns:xlink="http://www.w3.org/1999/xlink">
    <title>curved-arrow-with-broken-line</title>
    <defs>
        <polygon id="path-1" points="0 0 21.2491036 0 21.2491036 42.4772147 0 42.4772147"></polygon>
    </defs>
    <g id="Page-1" stroke="none" stroke-width="1" fill="none" fill-rule="evenodd">
        <g id="curved-arrow-with-broken-line" transform="translate(0.560000, 0.820000)">
            <g id="Group-5" transform="translate(12.435189, 22.083779) rotate(5.000000) translate(-12.435189, -22.083779) translate(1.810637, 0.845171)">
                <mask id="mask-2" fill="white">
                    <use xlink:href="#path-1"></use>
                </mask>
                <g id="Clip-2"></g>
                <path d="M19.2900519,0.270634874 C17.7116538,1.27764836 15.6246242,1.53569557 14.3021825,2.79131551 C13.2521047,3.55286946 13.2521047,5.05080202 14.3021825,5.81550288 C15.3555418,6.31900962 16.661576,5.81550288 17.7116538,5.55745568 C18.5090566,5.31199614 18.7650131,4.80534248 18.7650131,4.0563762 C19.5591344,3.55286946 20.3401297,3.04936271 20.8651686,2.28780876 C21.9185279,1.27764836 20.6092122,-0.736378612 19.2900519,0.270634874 Z" id="Fill-1" fill="#000000" mask="url(#mask-2)"></path>
                <path d="M8.79255569,15.1335245 C7.21415753,16.3859976 5.63904087,17.8996647 4.32972514,19.4101849 C3.02369091,20.9207052 1.44529275,22.9378791 1.44529275,24.6970057 C1.44529275,25.7040192 2.75460848,26.207526 3.27964737,25.445972 C4.5856816,24.193499 4.85476403,22.1763251 5.9081233,20.662658 C6.95820107,18.9066782 8.2675168,17.6384706 9.84263346,16.140538 C10.3676724,15.3789841 9.31759458,14.6268709 8.79255569,15.1335245 Z" id="Fill-3" fill="#000000" mask="url(#mask-2)"></path>
                <path d="M2.49865202,37.7881811 C1.97361314,35.7710072 1.70453071,33.5083737 1.70453071,31.2362996 C1.70453071,30.4873333 0.395214979,30.4873333 0.395214979,31.2362996 C0.395214979,34.2604869 -1.17990168,40.3088617 1.97361314,42.310301 C2.49865202,42.8138077 3.27964737,42.0648415 3.27964737,41.5613347 C3.27964737,40.3088617 2.75460848,39.0406541 2.49865202,37.7881811 Z" id="Fill-4" fill="#000000" mask="url(#mask-2)"></path>
            </g>
            <path d="M12.8493838,50.812489 C9.10701002,51.6850997 5.82180955,52.9831081 2.30802242,49.5144806 C1.83619613,49.0672676 1.59588708,49.9398783 2.06771338,50.3870912 C5.5932229,55.1809963 9.57590572,57.3516154 13.5585885,53.4303211 C14.4993105,52.5577104 13.5585885,50.3870912 12.8493838,50.812489 Z" id="Fill-6" fill="#000000" transform="translate(7.883128, 52.424565) rotate(5.000000) translate(-7.883128, -52.424565) "></path>
            <path d="M34.0826972,34.3487786 C32.0599939,35.3159795 30.5453331,37.2184079 28.7813843,38.8290772 C26.7618366,40.7474923 24.9978879,42.6699042 23.2244725,44.9000617 C22.71643,45.5435301 23.4832271,46.8224736 24.2342464,46.1830018 C25.7489072,44.26059 27.5254781,42.9816466 29.2862713,41.3869641 C31.05022,39.7802914 33.3316778,38.501348 34.8337165,36.5789362 C35.597358,35.627722 35.092471,33.7093069 34.0826972,34.3487786 Z" id="Fill-7" fill="#000000" transform="translate(29.131632, 40.289084) rotate(5.000000) translate(-29.131632, -40.289084) "></path>
            <path d="M52.4361314,22.1314055 C48.3135508,24.1130221 44.4032674,28.9305837 41.4225011,32.9044516 C40.9606114,33.7481453 41.6577492,34.6060186 42.3405427,34.0388296 C44.1766259,32.0465783 46.2393506,30.0649617 48.3135508,28.3633947 C49.9143859,26.9489671 51.7533379,25.8145891 53.1332692,24.1130221 C53.8160627,22.9750992 53.1332692,21.8407212 52.4361314,22.1314055 Z" id="Fill-8" fill="#000000" transform="translate(47.344560, 28.153472) rotate(5.000000) translate(-47.344560, -28.153472) "></path>
            <path d="M76.713401,9.98551 C71.9640733,9.621516 67.227929,12.1162066 63.0026423,14.2513421 C62.2050453,14.5975803 62.4753054,16.0180446 63.259719,16.0180446 C67.7552659,14.2513421 72.2343334,13.5411099 76.713401,13.1771159 C78.0284473,12.8308777 78.0284473,9.98551 76.713401,9.98551 Z" id="Fill-9" fill="#000000" transform="translate(70.110720, 12.983958) rotate(5.000000) translate(-70.110720, -12.983958) "></path>
            <path d="M97.937685,20.8600632 C96.4029091,19.2727088 94.2411445,17.6886544 92.3909509,16.3587088 C90.8600215,15.315873 89.0136745,16.8867269 90.2445725,18.2166725 C91.7755019,19.5301176 93.3256641,21.1174721 94.8565935,22.7015264 C96.4029091,24.2888808 97.937685,26.6583621 100.084063,27.9883077 C101.018777,28.5163259 102.249675,27.7176985 101.934257,26.6583621 C101.934257,24.5462897 99.784032,22.4441176 97.937685,20.8600632 Z" id="Fill-10" fill="#000000" transform="translate(95.913497, 22.087359) rotate(5.000000) translate(-95.913497, -22.087359) "></path>
            <path d="M101.908629,35.0658645 C101.908629,33.9432664 99.7066661,33.9432664 99.7066661,35.0658645 C99.3830801,37.8618356 98.7516929,40.3946976 98.1163596,43.1906686 C97.4849724,45.7270388 95.9143968,48.2493766 95.9143968,51.0593801 C95.9143968,52.4556115 98.1163596,53.0169106 98.7516929,51.6206791 C101.600828,46.849637 102.232215,40.1070319 101.908629,35.0658645 Z" id="Fill-11" fill="#000000" transform="translate(98.949983, 43.326176) rotate(5.000000) translate(-98.949983, -43.326176) "></path>
            <path d="M84.8541439,61.9857802 L80.8707879,67.1634562 C79.8078975,68.8831842 77.9602561,70.6183221 77.7019836,72.59077 C77.7019836,73.580076 78.7483182,73.8204681 79.549625,73.580076 C81.4005776,72.8342441 82.2018844,70.6183221 82.9899465,69.1359041 C84.3243542,67.1634562 85.3706888,64.9475341 86.7017853,62.9720042 C87.2348861,61.7453881 85.642206,60.9995562 84.8541439,61.9857802 Z" id="Fill-12" fill="#000000" transform="translate(82.255363, 67.598245) rotate(5.000000) translate(-82.255363, -67.598245) "></path>
            <path d="M73.5062019,76.8930075 C70.6170406,79.2030771 68.3872316,81.5095428 66.4651202,84.1007129 C64.5470048,86.6918831 61.9855217,90.4507015 62.6248934,93.6184881 C62.9525715,95.0528214 64.5470048,95.3483374 65.5140547,94.1951045 C67.104492,92.1805508 67.4161857,89.2938648 68.3872316,86.987399 C69.6659751,83.5240965 71.8997803,80.3563099 74.4572674,77.4696239 C75.0966392,77.1885234 74.1295893,76.316391 73.5062019,76.8930075 Z" id="Fill-13" fill="#000000" transform="translate(68.596057, 85.802248) rotate(5.000000) translate(-68.596057, -85.802248) "></path>
            <path d="M54.9653996,104.28741 C52.0983546,106.392005 49.8502399,108.756385 47.9495248,111.660068 C46.0288443,114.550597 43.7847227,118.236926 44.4236185,121.383953 C44.7510526,122.43625 46.6677401,122.43625 46.9792018,121.653604 C48.8998824,119.27607 48.8998824,116.129043 50.177674,113.4983 C51.4554657,110.607771 53.6876079,107.704088 56.2471843,105.08321 C56.8860801,104.557061 55.9357226,103.501475 54.9653996,104.28741 Z" id="Fill-14" fill="#000000" transform="translate(50.383780, 113.108351) rotate(5.000000) translate(-50.383780, -113.108351) "></path>
            <path d="M52.8109512,144.431574 C50.8517763,143.520553 49.1749736,142.828746 47.7875152,141.462214 C46.3965707,139.637325 45.8387985,136.912802 45.8387985,134.85731 C45.8387985,134.176891 44.4373958,134.176891 44.4373958,134.85731 C43.8796236,139.193202 44.995168,146.700586 52.253179,146.478525 C53.3687234,146.245076 53.9299817,144.887085 52.8109512,144.431574 Z" id="Fill-15" fill="#000000" transform="translate(48.867164, 140.415169) rotate(5.000000) translate(-48.867164, -140.415169) "></path>
            <path d="M76.4287892,155.382572 C73.8821102,155.155864 71.3469676,155.620905 68.8118251,155.620905 C65.5787252,155.382572 62.5821232,154.449583 60.0354442,152.601045 C59.5855212,152.362711 59.3490233,153.066086 59.5855212,153.292794 C64.4308449,157.016029 71.1220062,160.262596 77.1152101,157.710684 C78.2630903,157.016029 77.5766695,155.382572 76.4287892,155.382572 Z" id="Fill-16" fill="#000000" transform="translate(68.599052, 155.586506) rotate(5.000000) translate(-68.599052, -155.586506) "></path>
            <path d="M99.7342049,137.517788 C97.8424736,138.713288 96.2180889,140.500951 94.0488585,141.986947 C92.1571272,143.178722 89.991281,143.77461 87.8220506,144.065105 C86.475165,144.370498 86.475165,146.452381 87.8220506,146.452381 C92.6985888,146.757773 98.9253967,144.966386 101.636089,139.905064 C102.719012,138.407895 101.094627,136.9219 99.7342049,137.517788 Z" id="Fill-17" fill="#000000" transform="translate(94.400852, 141.934171) rotate(5.000000) translate(-94.400852, -141.934171) "></path>
            <path d="M111.931745,125.600173 C108.415984,128.734339 104.622753,132.115861 102.189807,135.980025 C101.370929,137.180601 103.27262,137.90155 104.081347,136.933246 C107.052316,133.563791 111.931745,131.147557 114.097371,127.048104 C114.364691,125.835462 113.014558,124.63187 111.931745,125.600173 Z" id="Fill-18" fill="#000000" transform="translate(108.060483, 131.315413) rotate(5.000000) translate(-108.060483, -131.315413) "></path>
            <path d="M132.21938,126.525672 C131.402524,125.013385 129.202499,123.998853 127.551631,123.231614 C125.636481,122.473885 123.43646,122.213911 121.239872,122.213911 C119.856708,122.213911 119.856708,123.998853 121.239872,123.998853 C123.155022,123.998853 124.805896,124.506119 126.453337,125.260677 C127.822772,126.015236 128.921066,127.292912 130.300798,128.04747 C131.402524,128.81471 132.768527,127.540204 132.21938,126.525672 Z" id="Fill-19" fill="#000000" transform="translate(126.273672, 125.247998) rotate(5.000000) translate(-126.273672, -125.247998) "></path>
            <path d="M147.253857,142.682159 C143.547934,136.627657 141.171619,129.789632 137.994884,123.465162 C136.404805,120.572783 132.167892,123.209717 133.496713,126.102152 C135.873367,131.357244 137.992009,136.898701 141.169028,141.89693 C138.777965,142.157425 136.400129,142.427789 133.754423,142.685047 C132.692797,142.955129 130.847456,142.955524 130.056842,144.008788 L129.785608,144.265538 C129.785608,144.265538 129.527657,144.265593 129.527602,144.522285 C128.998359,145.048945 129.527264,146.105218 130.056394,146.105105 C130.317594,146.374904 130.588773,146.374846 131.117903,146.374733 C132.43406,146.631143 133.753633,146.374169 135.341024,146.37383 C138.777121,146.103239 141.955264,145.845867 145.391249,146.101824 C146.981889,146.371339 148.040601,144.261633 147.253857,142.682159 Z" id="Fill-20" fill="#000000" transform="translate(138.414077, 134.350306) rotate(35.000000) translate(-138.414077, -134.350306) "></path>
        </g>
    </g>
</svg>