<svg id="calendar" xmlns="http://www.w3.org/2000/svg" xmlns:xlink="http://www.w3.org/1999/xlink" width="29" height="29" viewBox="0 0 29 29">
  <defs>
    <clipPath id="clip-path">
      <path id="Clip_2" data-name="Clip 2" d="M0,0H29V29H0Z" fill="none"/>
    </clipPath>
  </defs>
  <path id="Clip_2-2" data-name="Clip 2" d="M0,0H29V29H0Z" fill="none"/>
  <g id="calendar-2" data-name="calendar" clip-path="url(#clip-path)">
    <path id="Fill_1" data-name="Fill 1" d="M22.149,29A6.854,6.854,0,1,1,29,22.146,6.862,6.862,0,0,1,22.149,29Zm0-11.441a4.588,4.588,0,1,0,4.588,4.587A4.593,4.593,0,0,0,22.149,17.559ZM13.2,29H4.532A4.537,4.537,0,0,1,0,24.468V6.8A4.537,4.537,0,0,1,4.532,2.265H5.948V1.133a1.133,1.133,0,1,1,2.266,0V2.265h5.1V1.133a1.133,1.133,0,1,1,2.266,0V2.265h5.155V1.133a1.133,1.133,0,1,1,2.265,0V2.265h1.473A4.537,4.537,0,0,1,29,6.8v6.458a1.133,1.133,0,0,1-2.266,0V6.8a2.268,2.268,0,0,0-2.265-2.265H23V5.664a1.133,1.133,0,1,1-2.265,0V4.532H15.578V5.664a1.133,1.133,0,1,1-2.266,0V4.532h-5.1V5.664a1.133,1.133,0,1,1-2.266,0V4.532H4.532A2.268,2.268,0,0,0,2.266,6.8V24.468a2.268,2.268,0,0,0,2.265,2.266H13.2A1.133,1.133,0,1,1,13.2,29Zm10.593-5.72H22.149a1.134,1.134,0,0,1-1.133-1.133V19.824a1.133,1.133,0,0,1,2.266,0v1.19h.509a1.133,1.133,0,1,1,0,2.265Zm-11.782-.4a1.133,1.133,0,1,1,1.132-1.132A1.134,1.134,0,0,1,12.01,22.883Zm-4.928,0A1.133,1.133,0,1,1,8.214,21.75,1.134,1.134,0,0,1,7.081,22.883Zm4.928-4.928a1.133,1.133,0,1,1,1.132-1.133A1.134,1.134,0,0,1,12.01,17.955Zm-4.928,0a1.133,1.133,0,1,1,1.133-1.133A1.134,1.134,0,0,1,7.081,17.955Zm14.784-4.927A1.133,1.133,0,1,1,23,11.894,1.134,1.134,0,0,1,21.865,13.028Zm-4.928,0a1.133,1.133,0,1,1,1.133-1.133A1.134,1.134,0,0,1,16.937,13.028Zm-4.927,0a1.133,1.133,0,1,1,1.132-1.133A1.134,1.134,0,0,1,12.01,13.028Zm-4.928,0a1.133,1.133,0,1,1,1.133-1.133A1.134,1.134,0,0,1,7.081,13.028Z" transform="translate(-0.003)"/>
  </g>
</svg>
