<svg id="giftbox" xmlns="http://www.w3.org/2000/svg" width="52.48" height="51.66" viewBox="0 0 52.48 51.66">
  <path id="Fill_1" data-name="Fill 1" d="M50.769,20.16H1.712A1.7,1.7,0,0,1,0,18.472V13.409a3.4,3.4,0,0,1,3.423-3.375H7.232a5.892,5.892,0,0,1-.931-2.6A6.623,6.623,0,0,1,10.3.59,6.908,6.908,0,0,1,13.084,0a6.805,6.805,0,0,1,4.532,1.748l4.829,4.315a5.175,5.175,0,0,1,7.582,0l4.824-4.311A6.8,6.8,0,0,1,39.384,0a6.9,6.9,0,0,1,2.781.588,6.626,6.626,0,0,1,4,6.844,5.915,5.915,0,0,1-.932,2.6h3.82a3.4,3.4,0,0,1,3.423,3.375v5.063A1.7,1.7,0,0,1,50.769,20.16ZM39.443,3.38a3.626,3.626,0,0,0-2.372.939L33.886,7.166,31.372,9.413c0,.01,0,.019,0,.029s0,.02,0,.03v.562h7.881a3.435,3.435,0,0,0,3.517-3.051A3.294,3.294,0,0,0,40.308,3.5,3.061,3.061,0,0,0,39.443,3.38Zm-26.357,0a3.483,3.483,0,0,0-1.452.323,3.292,3.292,0,0,0-1.243,5.044,3.367,3.367,0,0,0,2.664,1.291h8.05V9.473c0-.016,0-.031,0-.047L15.32,4.249A3.319,3.319,0,0,0,13.086,3.376Z"/>
  <path id="Fill_3" data-name="Fill 3" d="M0,0V24.75a3.4,3.4,0,0,0,3.423,3.375H19.395V0Z" transform="translate(3.423 23.535)"/>
  <path id="Fill_4" data-name="Fill 4" d="M0,0V28.125H15.972a3.4,3.4,0,0,0,3.423-3.375V0Z" transform="translate(29.663 23.535)"/>
</svg>
