<svg id="Group_2" data-name="Group 2" xmlns="http://www.w3.org/2000/svg" xmlns:xlink="http://www.w3.org/1999/xlink" width="161.54" height="52.48" viewBox="0 0 161.54 52.48">
  <defs>
    <clipPath id="clip-path">
      <path id="Clip_100" data-name="Clip 100" d="M.595,0l17.45,17.184L.447,34.513A.723.723,0,0,1,0,33.762H0V.936" fill="none"/>
    </clipPath>
    <linearGradient id="linear-gradient" x1="0.296" y1="-0.016" x2="0.296" y2="1.012" gradientUnits="objectBoundingBox">
      <stop offset="0" stop-color="#87c8b2"/>
      <stop offset="1" stop-color="#2c729d"/>
    </linearGradient>
    <clipPath id="clip-path-2">
      <path id="Clip_103" data-name="Clip 103" d="M0,.033A1.281,1.281,0,0,1,.962.211L.946.2,6.954,3.647,7.576,4l.307.176h0l.4.227h0l.409.235,6.323,3.626h0L22.3,12.444,17.45,17.217" fill="none"/>
    </clipPath>
    <linearGradient id="linear-gradient-2" y1="0.239" x2="0.751" y2="0.239" gradientUnits="objectBoundingBox">
      <stop offset="0" stop-color="#53b8a0"/>
      <stop offset="1" stop-color="#dbe596"/>
    </linearGradient>
    <clipPath id="clip-path-3">
      <path id="Clip_106" data-name="Clip 106" d="M17.6,0l4.846,4.772L15.16,8.949l-.462.265-.174.1L8.016,13.045l-.421.242L1.946,16.526l-.182.1-.1.057L.777,17.2A.972.972,0,0,1,0,17.329" fill="none"/>
    </clipPath>
    <linearGradient id="linear-gradient-3" x1="0.375" y1="0.498" x2="0.375" y2="1.015" gradientUnits="objectBoundingBox">
      <stop offset="0" stop-color="#7d4589"/>
      <stop offset="1" stop-color="#da3e3e"/>
    </linearGradient>
    <clipPath id="clip-path-4">
      <path id="Clip_109" data-name="Clip 109" d="M4.847,0c.141.081,6.365,3.676,7.051,4.043s.772,1.017-.049,1.488l0,0-.885.508-.3.169-.563.323-.084.048-2.263,1.3-.2.116-1.08.619-.257.147L5.98,8.9l-.329.189-.687.394-.027.015L4.89,9.52l-.016.009-.028.016L0,4.773" fill="none"/>
    </clipPath>
    <linearGradient id="linear-gradient-4" x1="0.808" y1="0.36" x2="0.808" y2="0.636" gradientUnits="objectBoundingBox">
      <stop offset="0" stop-color="#f7c374"/>
      <stop offset="1" stop-color="#e88172"/>
    </linearGradient>
  </defs>
  <path id="Fill_62" data-name="Fill 62" d="M161.54,45.387A7.117,7.117,0,0,1,154.4,52.48H7.141A7.118,7.118,0,0,1,0,45.387V7.092A7.117,7.117,0,0,1,7.141,0H154.4a7.116,7.116,0,0,1,7.139,7.092v38.3" fill="#1a1919"/>
  <g id="Group_101" data-name="Group 101" transform="translate(12.117 10.689)">
    <path id="Clip_100-2" data-name="Clip 100" d="M.595,0l17.45,17.184L.447,34.513A.723.723,0,0,1,0,33.762H0V.936" fill="none"/>
    <g id="Group_101-2" data-name="Group 101" clip-path="url(#clip-path)">
      <path id="Fill_99" data-name="Fill 99" d="M22.891,12.444,15.607,8.268,1.557.211C.777-.237,0,.034,0,.969V33.795c0,.7.556,1,1.233.614l14.374-8.243,7.284-4.176,7-4.014c.821-.471.743-1.118.049-1.488s-7.051-4.043-7.051-4.043" transform="translate(0 -0.033)" fill="url(#linear-gradient)"/>
    </g>
  </g>
  <g id="Group_104" data-name="Group 104" transform="translate(12.711 10.656)">
    <path id="Clip_103-2" data-name="Clip 103" d="M0,.033A1.281,1.281,0,0,1,.962.211L.946.2,6.954,3.647,7.576,4l.307.176h0l.4.227h0l.409.235,6.323,3.626h0L22.3,12.444,17.45,17.217" fill="none"/>
    <g id="Group_104-2" data-name="Group 104" clip-path="url(#clip-path-2)">
      <path id="Fill_102" data-name="Fill 102" d="M22.891,12.444,15.607,8.268,1.557.211C.777-.237,0,.034,0,.969V33.795c0,.7.556,1,1.233.614l14.374-8.243,7.284-4.176,7-4.014c.821-.471.743-1.118.049-1.488s-7.051-4.043-7.051-4.043" transform="translate(-0.595)" fill="url(#linear-gradient-2)"/>
    </g>
  </g>
  <g id="Group_107" data-name="Group 107" transform="translate(12.564 27.873)">
    <path id="Clip_106-2" data-name="Clip 106" d="M17.6,0l4.846,4.772L15.16,8.949l-.462.265-.174.1L8.016,13.045l-.421.242L1.946,16.526l-.182.1-.1.057L.777,17.2A.972.972,0,0,1,0,17.329" fill="none"/>
    <g id="Group_107-2" data-name="Group 107" clip-path="url(#clip-path-3)">
      <path id="Fill_105" data-name="Fill 105" d="M22.891,12.444,15.607,8.268,1.557.211C.777-.237,0,.034,0,.969V33.795c0,.7.556,1,1.233.614l14.374-8.243,7.284-4.176,7-4.014c.821-.471.743-1.118.049-1.488s-7.051-4.043-7.051-4.043" transform="translate(-0.447 -17.217)" fill="url(#linear-gradient-3)"/>
    </g>
  </g>
  <g id="Group_110" data-name="Group 110" transform="translate(30.161 23.1)">
    <path id="Clip_109-2" data-name="Clip 109" d="M4.847,0c.141.081,6.365,3.676,7.051,4.043s.772,1.017-.049,1.488l0,0-.885.508-.3.169-.563.323-.084.048-2.263,1.3-.2.116-1.08.619-.257.147L5.98,8.9l-.329.189-.687.394-.027.015L4.89,9.52l-.016.009-.028.016L0,4.773" fill="none"/>
    <g id="Group_110-2" data-name="Group 110" clip-path="url(#clip-path-4)">
      <path id="Fill_108" data-name="Fill 108" d="M22.891,12.444,15.607,8.268,1.557.211C.777-.237,0,.034,0,.969V33.795c0,.7.556,1,1.233.614l14.374-8.243,7.284-4.176,7-4.014c.821-.471.743-1.118.049-1.488s-7.051-4.043-7.051-4.043" transform="translate(-18.044 -12.444)" fill="url(#linear-gradient-4)"/>
    </g>
  </g>
  <path id="Fill_111" data-name="Fill 111" d="M1.575,15.164H0V.189H1.282L1.5,1.6h.076A3.692,3.692,0,0,1,2.991.377,4.351,4.351,0,0,1,4.842,0,3.872,3.872,0,0,1,8.037,1.406,6.177,6.177,0,0,1,9.163,5.347,6.153,6.153,0,0,1,8.019,9.3a3.883,3.883,0,0,1-3.177,1.409,4.56,4.56,0,0,1-1.856-.372A3.515,3.515,0,0,1,1.575,9.2H1.462a13.887,13.887,0,0,1,.113,1.715v4.252ZM4.614,1.329a2.818,2.818,0,0,0-2.308.877A4.521,4.521,0,0,0,1.575,5v.348a5.176,5.176,0,0,0,.732,3.118A2.8,2.8,0,0,0,4.652,9.4,2.454,2.454,0,0,0,6.765,8.318a5.14,5.14,0,0,0,.764-2.99,4.948,4.948,0,0,0-.764-2.966A2.531,2.531,0,0,0,4.614,1.329Z" transform="translate(120.876 24.108)" fill="#f9f8f7"/>
  <path id="Fill_112" data-name="Fill 112" d="M0,14.673H1.576V0H0Z" transform="translate(132.112 19.958)" fill="#f9f8f7"/>
  <path id="Fill_113" data-name="Fill 113" d="M3.3,10.694A3.508,3.508,0,0,1,.878,9.9,2.891,2.891,0,0,1,0,7.648,2.682,2.682,0,0,1,1.261,5.263a7.47,7.47,0,0,1,3.781-.9l1.767-.057V3.668a2.615,2.615,0,0,0-.527-1.8A2.183,2.183,0,0,0,4.6,1.292a6.928,6.928,0,0,0-2.944.792L1.168.887A7.5,7.5,0,0,1,2.854.236,7.357,7.357,0,0,1,4.691,0,4,4,0,0,1,7.449.82a3.429,3.429,0,0,1,.9,2.632V10.5H7.178L6.865,9.033H6.789a4.36,4.36,0,0,1-1.552,1.316A4.758,4.758,0,0,1,3.3,10.694ZM6.771,5.423l-1.577.066a5.793,5.793,0,0,0-2.711.58,1.752,1.752,0,0,0-.831,1.6A1.611,1.611,0,0,0,2.17,8.959,2.164,2.164,0,0,0,3.618,9.4,3.227,3.227,0,0,0,5.93,8.6a2.966,2.966,0,0,0,.841-2.245Z" transform="translate(135.571 24.127)" fill="#f9f8f7"/>
  <path id="Fill_114" data-name="Fill 114" d="M0,0H1.689L3.968,5.894A22.394,22.394,0,0,1,4.9,8.808h.076q.124-.482.517-1.646T8.07,0H9.761L5.289,11.769a5.87,5.87,0,0,1-1.553,2.476,3.316,3.316,0,0,1-2.179.73,6.4,6.4,0,0,1-1.425-.16V13.561a5.539,5.539,0,0,0,1.168.113,2.4,2.4,0,0,0,2.317-1.811L4.2,10.393,0,0" transform="translate(144.833 24.296)" fill="#f9f8f7"/>
  <path id="Fill_115" data-name="Fill 115" d="M4.68,16.473C1.447,16.473,0,14.92,0,13.381a3.1,3.1,0,0,1,1.676-2.638,9.355,9.355,0,0,1,4.091-.99l.067,0L5.794,9.7A2.161,2.161,0,0,1,5.18,8.28a1.77,1.77,0,0,1,.185-.765l.034-.08c-.259.024-.484.044-.7.044A3.429,3.429,0,0,1,1.088,4.086,3.89,3.89,0,0,1,2.48,1.19,5.97,5.97,0,0,1,6.377,0h4.484L9.468.779H8.119l0,0A3.636,3.636,0,0,1,9.663,3.7,3.649,3.649,0,0,1,7.835,6.766L7.8,6.8a1.473,1.473,0,0,0-.579,1.031,1.18,1.18,0,0,0,.558.922l.008.007.784.6c.94.785,1.828,1.527,1.828,3.028C10.4,14.418,8.438,16.473,4.68,16.473Zm1.393-6.118a8.837,8.837,0,0,0-2.286.347,2.424,2.424,0,0,0-1.872,2.227,2.26,2.26,0,0,0,1.042,1.894,4.847,4.847,0,0,0,2.789.744c1.974,0,3.2-.895,3.2-2.336,0-1.128-.771-1.722-2.374-2.854A3.4,3.4,0,0,0,6.073,10.354ZM5.006.714a2.049,2.049,0,0,0-1.524.714A2.436,2.436,0,0,0,3,3.027c0,1.342.8,3.848,2.722,3.848A2.237,2.237,0,0,0,7.2,6.269a2.2,2.2,0,0,0,.543-1.579C7.747,3.065,6.771.714,5.006.714Z" transform="translate(88.401 24.478)" fill="#f9f8f7"/>
  <path id="Fill_116" data-name="Fill 116" d="M5.3,10.338A5.111,5.111,0,0,1,0,5.244,5.075,5.075,0,0,1,1.575,1.562,5.788,5.788,0,0,1,5.629,0,5.158,5.158,0,0,1,9.423,1.567a5.167,5.167,0,0,1,1.4,3.527A5.267,5.267,0,0,1,9.391,8.671,5.431,5.431,0,0,1,5.3,10.338ZM5.063.669A3.021,3.021,0,0,0,3.108,1.4a3.256,3.256,0,0,0-1,2.633,8.4,8.4,0,0,0,.861,3.627A3.282,3.282,0,0,0,5.8,9.689a2.8,2.8,0,0,0,2.216-1.1,3.808,3.808,0,0,0,.653-2.4C8.672,4.391,7.79.669,5.063.669Z" transform="translate(77.514 24.171)" fill="#f9f8f7"/>
  <path id="Fill_117" data-name="Fill 117" d="M5.3,10.338A5.111,5.111,0,0,1,0,5.244,5.075,5.075,0,0,1,1.576,1.562,5.786,5.786,0,0,1,5.629,0a5.16,5.16,0,0,1,3.8,1.567,5.166,5.166,0,0,1,1.4,3.527A5.267,5.267,0,0,1,9.391,8.671,5.43,5.43,0,0,1,5.3,10.338ZM5.063.669A3.017,3.017,0,0,0,3.108,1.4a3.256,3.256,0,0,0-1,2.633,8.4,8.4,0,0,0,.861,3.627A3.282,3.282,0,0,0,5.8,9.689,2.77,2.77,0,0,0,8.02,8.59a3.818,3.818,0,0,0,.652-2.4C8.672,4.391,7.79.669,5.063.669Z" transform="translate(65.735 24.171)" fill="#f9f8f7"/>
  <path id="Fill_118" data-name="Fill 118" d="M15.053,14.885l-3.124.716a23.311,23.311,0,0,1-3.6.368C2.293,15.969,0,11.564,0,8.114,0,3.9,3.255,0,8.827,0a12.671,12.671,0,0,1,3.342.455A8.546,8.546,0,0,1,15.053,1.8L13.24,3.515l-.764.173.546-.868A6.262,6.262,0,0,0,8.346.781c-3.453,0-6.053,2.605-6.053,6.4A7.7,7.7,0,0,0,10.027,15.1a6.544,6.544,0,0,0,2.775-.543V11.066l-3.3.173,1.747-.934h4.632l-.568.542a.508.508,0,0,0-.219.347c-.023.2-.043.825-.043,1.042v2.648" transform="translate(49.021 19.286)" fill="#f9f8f7"/>
  <path id="Fill_119" data-name="Fill 119" d="M4.641,14.744c-.721-.065-.872-.195-.872-1.042V1.42c0-.047.008-.094.012-.14C3.869.521,4.087.391,4.765,0H1.639L0,.781H1.67v13.4c0,.433-.086.5-.589,1.149H4.947l.808-.476c-.371-.045-.743-.066-1.115-.109" transform="translate(98.785 18.802)" fill="#f9f8f7"/>
  <path id="Fill_120" data-name="Fill 120" d="M5.1,10.365a4.667,4.667,0,0,1-2.886-.841A5.6,5.6,0,0,1,0,4.977,4.75,4.75,0,0,1,1.646,1.236,5.176,5.176,0,0,1,4.969,0,4.241,4.241,0,0,1,7.205.6a3.564,3.564,0,0,1,1.516,2.13l-5.1,2.05-1.671.129C2.466,7.5,4.261,9.244,6.422,9.244a5.618,5.618,0,0,0,2.647-.753L7.919,9.568c-.077.042-.155.087-.233.131-.158.091-.321.184-.481.257A5.044,5.044,0,0,1,5.1,10.365ZM4.361.71c-1,0-2.495.8-2.495,3,0,.244.019.493.039.756.01.127.02.258.027.388l3.949-1.7c.417-.152.628-.284.628-.581A2.152,2.152,0,0,0,4.361.71Z" transform="translate(104.397 24.178)" fill="#f9f8f7"/>
  <path id="Fill_121" data-name="Fill 121" d="M.647.147V1.569H.474V.147H0V0H1.121V.147H.647" transform="translate(113.763 24.178)" fill="#f9f8f7"/>
  <path id="Fill_122" data-name="Fill 122" d="M1.193,1.569V.134H1.185L.744,1.569H.608L.163.134H.158V1.569H0V0H.271l.4,1.268H.679L1.075,0H1.35V1.569H1.193" transform="translate(115.169 24.178)" fill="#f9f8f7"/>
  <path id="Fill_123" data-name="Fill 123" d="M1.021,4.388H0C0,4.3.267,3.572.792,2.23A16.93,16.93,0,0,0,1.585,0H2.866a18.7,18.7,0,0,0,.718,2.2A19.626,19.626,0,0,1,4.3,4.386H3.217a7.107,7.107,0,0,0-.309-1.26H1.34a6.533,6.533,0,0,0-.319,1.26ZM2.1.6a19.624,19.624,0,0,1-.6,1.88H2.734A18.582,18.582,0,0,1,2.155.6Z" transform="translate(49.059 10.673)" fill="#fcfbfa"/>
  <path id="Fill_124" data-name="Fill 124" d="M3.641,4.387H2.8a8.228,8.228,0,0,0-.933-1.459,8.022,8.022,0,0,1-1.113-1.9H.7A11.782,11.782,0,0,1,.787,2.359q0,.832.048,2.028H0Q.051,3.343.051,2.092.051.863,0,0H1.008a6.318,6.318,0,0,0,.838,1.425,8.367,8.367,0,0,1,1.025,1.8h.051A12.625,12.625,0,0,1,2.84,1.874Q2.84.96,2.792,0h.848q-.048.836-.048,2.092t.048,2.294" transform="translate(54.095 10.673)" fill="#fcfbfa"/>
  <path id="Fill_125" data-name="Fill 125" d="M1.384,4.448c-.333,0-.8-.014-1.384-.041.029-.662.044-1.433.044-2.295C.044,1.293.029.589,0,.02H.594c.09,0,.228,0,.434-.01C1.267,0,1.371,0,1.4,0A2.3,2.3,0,0,1,3.181.607a2.1,2.1,0,0,1,.551,1.455,2.484,2.484,0,0,1-.617,1.671A2.173,2.173,0,0,1,1.384,4.448ZM1.265.674a3.7,3.7,0,0,0-.4.03c.023.46.034.934.034,1.409C.9,2.66.911,3.2.933,3.71a2.3,2.3,0,0,0,.441.043A1.291,1.291,0,0,0,2.454,3.3a1.74,1.74,0,0,0,.352-1.1,1.621,1.621,0,0,0-.381-1.09A1.451,1.451,0,0,0,1.265.674Z" transform="translate(58.921 10.653)" fill="#fcfbfa"/>
  <path id="Fill_126" data-name="Fill 126" d="M.943,4.408H0c.029-.682.044-1.454.044-2.3C.044,1.311.029.607,0,.02H.587c.061,0,.185,0,.426-.01.2-.007.4-.01.6-.01C2.645,0,3.169.356,3.169,1.058A1.191,1.191,0,0,1,2.28,2.227v.051a1.062,1.062,0,0,1,.6.53,11.677,11.677,0,0,1,.7,1.6h-1a6.568,6.568,0,0,0-.6-1.472.8.8,0,0,0-.679-.28c-.148,0-.267,0-.376,0,0,.574.01,1.162.031,1.749ZM1.435.636A3,3,0,0,0,.872.684C.9,1.039.909,1.5.909,2.045c.1,0,.21.007.316.007.716,0,1.079-.25,1.079-.744C2.3.862,2.012.636,1.435.636Z" transform="translate(63.611 10.653)" fill="#fcfbfa"/>
  <path id="Fill_127" data-name="Fill 127" d="M2.1,4.609A2.008,2.008,0,0,1,.6,3.984,2.2,2.2,0,0,1,0,2.4,2.419,2.419,0,0,1,.638.68,2.083,2.083,0,0,1,2.215,0a2.014,2.014,0,0,1,1.5.624,2.2,2.2,0,0,1,.6,1.59,2.42,2.42,0,0,1-.637,1.714A2.086,2.086,0,0,1,2.1,4.609ZM2.124.731a1.041,1.041,0,0,0-.842.442A1.762,1.762,0,0,0,.936,2.288,1.736,1.736,0,0,0,1.3,3.428a1.127,1.127,0,0,0,.895.44,1.041,1.041,0,0,0,.842-.444,1.763,1.763,0,0,0,.346-1.113A1.737,1.737,0,0,0,3.02,1.169,1.126,1.126,0,0,0,2.124.731Z" transform="translate(67.731 10.572)" fill="#fcfbfa"/>
  <path id="Fill_128" data-name="Fill 128" d="M.96,4.387H0Q.044,3.343.044,2.092.044.863,0,0H.96Q.916.849.916,2.092q0,1.27.044,2.294" transform="translate(73.008 10.673)" fill="#fcfbfa"/>
  <path id="Fill_129" data-name="Fill 129" d="M1.384,4.448c-.333,0-.8-.014-1.384-.041.029-.662.044-1.433.044-2.295C.044,1.293.029.589,0,.02H.594c.09,0,.228,0,.434-.01C1.267,0,1.371,0,1.4,0A2.3,2.3,0,0,1,3.181.607a2.1,2.1,0,0,1,.551,1.455,2.484,2.484,0,0,1-.617,1.671A2.173,2.173,0,0,1,1.384,4.448ZM1.265.674a3.7,3.7,0,0,0-.4.03c.023.46.034.934.034,1.409C.9,2.66.911,3.2.933,3.71a2.3,2.3,0,0,0,.441.043A1.291,1.291,0,0,0,2.454,3.3a1.74,1.74,0,0,0,.352-1.1,1.621,1.621,0,0,0-.381-1.09A1.451,1.451,0,0,0,1.265.674Z" transform="translate(75.154 10.653)" fill="#fcfbfa"/>
  <path id="Fill_130" data-name="Fill 130" d="M1.021,4.388H0C0,4.3.267,3.572.792,2.23A16.774,16.774,0,0,0,1.584,0H2.866a18.7,18.7,0,0,0,.718,2.2A19.626,19.626,0,0,1,4.3,4.386H3.217a7.172,7.172,0,0,0-.31-1.26H1.34a6.432,6.432,0,0,0-.319,1.26ZM2.1.6a19.624,19.624,0,0,1-.6,1.88H2.734A18.9,18.9,0,0,1,2.154.6Z" transform="translate(81.108 10.673)" fill="#fcfbfa"/>
  <path id="Fill_131" data-name="Fill 131" d="M.953,4.407H0c.029-.632.044-1.4.044-2.3C.044,1.3.029.6,0,.02H.59c.077,0,.216,0,.482-.01C1.289,0,1.5,0,1.689,0A1.957,1.957,0,0,1,2.778.29a.982.982,0,0,1,.445.879,1.318,1.318,0,0,1-.6,1.19,2.709,2.709,0,0,1-1.478.383c-.112,0-.184,0-.227-.006,0,.407.012.954.037,1.67ZM1.384.634a2.709,2.709,0,0,0-.508.05C.9,1.117.913,1.6.913,2.126c.057,0,.122.007.2.007.822,0,1.238-.262,1.238-.778C2.348.876,2.024.634,1.384.634Z" transform="translate(86.144 10.653)" fill="#fcfbfa"/>
  <path id="Fill_132" data-name="Fill 132" d="M.953,4.407H0c.029-.632.044-1.4.044-2.3C.044,1.3.029.6,0,.02H.59c.077,0,.216,0,.482-.01C1.289,0,1.5,0,1.689,0A1.957,1.957,0,0,1,2.778.29a.982.982,0,0,1,.445.879,1.318,1.318,0,0,1-.6,1.19,2.709,2.709,0,0,1-1.478.383c-.112,0-.184,0-.227-.006,0,.407.012.954.037,1.67ZM1.384.634a2.709,2.709,0,0,0-.508.05C.9,1.117.913,1.6.913,2.126c.057,0,.122.007.2.007.822,0,1.238-.262,1.238-.778C2.348.876,2.024.634,1.384.634Z" transform="translate(90.213 10.653)" fill="#fcfbfa"/>
  <path id="Fill_133" data-name="Fill 133" d="M2.1,4.609A2.008,2.008,0,0,1,.6,3.984,2.2,2.2,0,0,1,0,2.4,2.419,2.419,0,0,1,.638.68,2.084,2.084,0,0,1,2.216,0a2.013,2.013,0,0,1,1.5.624,2.2,2.2,0,0,1,.6,1.59,2.417,2.417,0,0,1-.638,1.714A2.086,2.086,0,0,1,2.1,4.609ZM2.124.731a1.041,1.041,0,0,0-.841.442A1.762,1.762,0,0,0,.936,2.288,1.732,1.732,0,0,0,1.3,3.428a1.124,1.124,0,0,0,.894.44,1.038,1.038,0,0,0,.841-.444,1.763,1.763,0,0,0,.346-1.113A1.737,1.737,0,0,0,3.02,1.169,1.126,1.126,0,0,0,2.124.731Z" transform="translate(95.77 10.572)" fill="#fcfbfa"/>
  <path id="Fill_134" data-name="Fill 134" d="M3.64,4.387H2.8a8.205,8.205,0,0,0-.933-1.459,8.027,8.027,0,0,1-1.113-1.9H.7A11.856,11.856,0,0,1,.787,2.359q0,.832.047,2.028H0Q.051,3.343.051,2.092.051.863,0,0H1.007a6.328,6.328,0,0,0,.838,1.425,8.382,8.382,0,0,1,1.025,1.8h.051A12.632,12.632,0,0,1,2.84,1.874Q2.84.96,2.792,0H3.64q-.047.836-.047,2.092T3.64,4.387" transform="translate(101.047 10.673)" fill="#fcfbfa"/>
</svg>
