<svg xmlns="http://www.w3.org/2000/svg" width="57.4" height="50.777" viewBox="0 0 57.4 50.777">
  <path id="Fill_1" data-name="Fill 1" d="M57.377,15.459A16.312,16.312,0,0,0,52.486,4.567,15.816,15.816,0,0,0,41.51,0H41.5a14.256,14.256,0,0,0-9.442,3.565A20.166,20.166,0,0,0,28.7,7.274a20.166,20.166,0,0,0-3.354-3.708A14.256,14.256,0,0,0,15.9,0H15.89A15.818,15.818,0,0,0,4.914,4.567,16.312,16.312,0,0,0,.023,15.457c-.276,5.508,1.892,11.737,6.1,17.538,4.883,6.726,12.418,12.741,21.792,17.4l.777.386.777-.386c9.375-4.656,16.911-10.671,21.8-17.4C55.483,27.194,57.652,20.966,57.377,15.459Z"/>
</svg>
