<svg id="instagram" xmlns="http://www.w3.org/2000/svg" xmlns:xlink="http://www.w3.org/1999/xlink" width="18.04" height="18.04" viewBox="0 0 18.04 18.04">
  <defs>
    <clipPath id="clip-path">
      <path id="Clip_2" data-name="Clip 2" d="M0,0H18.04V18.04H0Z" fill="none"/>
    </clipPath>
  </defs>
  <g id="Group_4" data-name="Group 4">
    <path id="Clip_2-2" data-name="Clip 2" d="M0,0H18.04V18.04H0Z" fill="none"/>
    <g id="Group_4-2" data-name="Group 4" clip-path="url(#clip-path)">
      <path id="Fill_1" data-name="Fill 1" d="M4.629,9.259A4.63,4.63,0,1,1,9.257,4.63,4.634,4.634,0,0,1,4.629,9.259Zm0-7.635a3.006,3.006,0,1,0,3,3.005A3.008,3.008,0,0,0,4.629,1.625Z" transform="translate(4.394 4.389)"/>
      <path id="Fill_3" data-name="Fill 3" d="M7.045,18.044h0c-2.266,0-4.111-.112-5.523-1.524C-.022,14.976-.011,12.995.005,10c0-.315,0-.641,0-.979,0-.362,0-.709,0-1.045-.02-2.847-.034-4.9,1.518-6.457A5.321,5.321,0,0,1,5.308.057C6.107.021,7.516,0,9.076,0c1.533,0,2.9.021,3.664.057,3.276.151,5.09,1.965,5.243,5.244.076,1.717.076,5.816,0,7.433-.141,3.064-1.739,4.315-3.056,4.826-1.224.474-2.384.474-5.826.474H9.023c-.363,0-.713,0-1.052.005C7.65,18.042,7.345,18.044,7.045,18.044ZM9,16.409h1.513c2.709,0,3.907-.094,4.852-1.039,1.052-1.057,1.051-2.423,1.048-5.723q0-.3,0-.631c0-2.387-.009-2.675-.052-3.644-.073-1.621-.588-2.631-1.619-3.18a8.226,8.226,0,0,0-3.784-.579c-.3,0-.6,0-.922.006s-.668.006-1.012.006L8.991,1.6H8.94c-2.336,0-2.646.011-3.565.043H5.341c-1.757.09-2.81.686-3.313,1.875a12.022,12.022,0,0,0-.435,4.424c0,.343.006.7.006,1.061,0,.428,0,.832-.009,1.223-.027,2.438-.044,4.047,1.045,5.132,1,1.006,2.38,1.048,5.4,1.048H9Z" transform="translate(0)"/>
    </g>
  </g>
  <path id="Fill_5" data-name="Fill 5" d="M2.2,1.1A1.1,1.1,0,1,1,1.1,0,1.1,1.1,0,0,1,2.2,1.1Z" transform="translate(12.669 3.167)"/>
</svg>
