<svg id="Portrait_Black" data-name="Portrait Black" xmlns="http://www.w3.org/2000/svg" width="295.2" height="301.76" viewBox="0 0 295.2 301.76">
  <path id="Fill_14" data-name="Fill 14" d="M32.607,9.759l.106-1.393-1.4.106a10.757,10.757,0,0,1-7.208-2.1C15.411-.01,6.372-1.971,2.187,2.2A8.059,8.059,0,0,0,0,7.7c6.091-.3,14.317,4.225,21.73,11.616s11.955,15.6,11.659,21.665A8.105,8.105,0,0,0,38.9,38.8c4.185-4.172,2.218-13.176-4.177-21.854a10.673,10.673,0,0,1-2.111-7.186" transform="translate(56.051 33.529)" fill="#131313"/>
  <path id="Fill_15" data-name="Fill 15" d="M41.1,30.547c-.594-5.674-4.817-12.784-11.318-19.265a50.111,50.111,0,0,0-10.413-8.1C15.6,6.451,8.4,13.686,6.793,22.549a27.792,27.792,0,0,0-.46,4.587c-.824-2.39-.735-4.72.119-9.44,1.314-7.28,6.642-14.064,9.307-16.276A19.826,19.826,0,0,0,10.46,0C8.055,1.894.485,8.567.032,17.859-.51,28.912,5.977,33.831,4.359,36.628c2.805-1.613,7.741,4.853,18.829,4.32,9.336-.459,16.023-8.012,17.916-10.4" transform="translate(52.314 44.705)" fill="#131313"/>
  <path id="Fill_16" data-name="Fill 16" d="M197.713,149.36a124.453,124.453,0,0,0-3.029-19.174,120.913,120.913,0,0,0-5.13-15.913c-.638-1.727-1.255-3.291-1.871-4.781a1.519,1.519,0,0,1-.431-.556,121.072,121.072,0,0,0-49.109-53.846c-2.613-1.512-5.36-2.883-8.151-4.188a1.139,1.139,0,0,1-.1-.089c-.75-.348-1.522-.66-2.279-.993-.78-.341-1.552-.7-2.346-1.015-.1-.044-.2-.089-.3-.133-.007,0-.022.007-.03.007a120.454,120.454,0,0,0-40.5-8.657A.81.81,0,0,1,84.246,40c-7.1-1.127-16.5-6.552-20.364-15.794C61.655,18.885,60.549,10.495,67.157,0h0A17.346,17.346,0,0,0,54.269,5.529a1.6,1.6,0,0,1-1.314.541c-4.87-.348-25.531-.059-39.785,7.426.973,6.315,5.509,22.531,26.585,28.609a1.587,1.587,0,0,1-.445,3.113,40.809,40.809,0,0,1-14.632-3.172C16.162,38.7,9.124,34.412,3.756,29.276L0,25.259c2.331,6.93,9.317,19.307,30.275,28.713,5.8,2.6,14.291,3.491,21.462,4q4.733.145,9.384.674c.238.022.46.044.683.074.022,0,.045.007.074.007A116.1,116.1,0,0,1,112.39,77.393c2.153,1.43,4.261,2.92,6.31,4.491.69.526,1.366,1.067,2.042,1.608q2.828,2.268,5.509,4.714c.631.563,1.262,1.127,1.878,1.712q2.984,2.835,5.768,5.885c.312.341.638.66.943,1q3.263,3.647,6.206,7.575c.319.43.609.889.928,1.319q2.339,3.213,4.462,6.574c.542.867,1.054,1.764,1.581,2.646q1.693,2.868,3.229,5.833.768,1.49,1.507,3.009c.98,2.038,1.886,4.128,2.747,6.241.386.941.794,1.868,1.151,2.816,1.158,3.061,2.227,6.174,3.133,9.368-2.858-23.035-14.365-55.3-33.4-73.894a1.589,1.589,0,0,1,2.071-2.4l.535.4c.371.274.735.548,1.1.83a139.531,139.531,0,0,1,12.517,11.214,140.5,140.5,0,0,1,10.817,12.637,139.965,139.965,0,0,1,8.968,13.867,140.428,140.428,0,0,1,7.016,14.823c.483,1.3.965,2.557,1.448,3.8.319.83.586,1.66.854,2.483.148.474.3.941.46,1.408l.646,1.92,1.18,4.121c.193.623.379,1.245.512,1.883l.95,3.884c.208.86.371,1.719.535,2.587.089.482.171.956.275,1.438l.393,1.994.312,2.068c.074.511.156,1,.23,1.49.141.86.275,1.712.379,2.579a138.647,138.647,0,0,1,.921,16.439c-.059,2.312-.178,4.684-.371,7.278-.015.334-.015.712,0,1.082v.007a2.53,2.53,0,0,1,.03.334c-.082,3.172-.3,6.307-.586,9.428-.082.875-.193,1.749-.29,2.624-.275,2.394-.6,4.773-1,7.137-.126.786-.252,1.579-.393,2.357a132.812,132.812,0,0,1-4.766,18.24,134.436,134.436,0,0,1-8.337,19.47l-.609,1.067a1.484,1.484,0,0,1-.126.3,135.886,135.886,0,0,1-27.134,34.879,131.421,131.421,0,0,0,60.646-88.191,147.686,147.686,0,0,0,2.116-15.083,133.291,133.291,0,0,0,.037-19.322" transform="translate(97.154)" fill="#131313"/>
  <path id="Fill_17" data-name="Fill 17" d="M.281,32.558A117.491,117.491,0,0,0,14.947,59.607,106.363,106.363,0,0,1,1.7,7.988C1.7,5.3,1.833,2.635,2.033,0A139.027,139.027,0,0,0,.281,32.558" transform="translate(37.367 152.743)" fill="#131313"/>
  <path id="Fill_18" data-name="Fill 18" d="M.276,0,.054,7.617C-.94,41.671,11.935,72.974,33.63,96.861A133.17,133.17,0,0,1,12.166,29.388,213.393,213.393,0,0,1,.276,0" transform="translate(0 145.292)" fill="#131313"/>
  <path id="Fill_19" data-name="Fill 19" d="M257.831,87.906a138.2,138.2,0,0,0-.906-16.3c-.1-.829-.223-1.658-.356-2.487-.082-.513-.156-1.033-.23-1.545l-.3-2.02-.379-1.952c-.1-.5-.193-1-.29-1.508-.148-.822-.3-1.643-.49-2.457l-.958-3.987c-.126-.6-.29-1.146-.46-1.7l-1.789-6.045c-.163-.49-.327-.98-.483-1.477-.252-.791-.5-1.583-.794-2.367-.483-1.266-.965-2.555-1.44-3.852a140.523,140.523,0,0,0-6.83-14.669A138.737,138.737,0,0,0,233.377,11.8,137.8,137.8,0,0,0,223.525,0c16.622,25.629,24.335,60.174,22.353,78.529a1.6,1.6,0,0,1-1.581,1.44h-.007a1.6,1.6,0,0,1-1.574-1.455,59.624,59.624,0,0,0-2.762-13,114.722,114.722,0,0,0-37.966-60.2,121.091,121.091,0,0,1,18.166,36.709c.913,3.045,1.678,6.113,2.339,9.174a105.147,105.147,0,0,1,4.232,29.556c0,57.348-45.79,103.841-102.278,103.841A100.606,100.606,0,0,1,72.279,170.06l-.022.038c-.267-.166-.52-.339-.78-.505-.282-.173-.549-.362-.831-.535-.757-.49-1.522-.972-2.264-1.477-.735-.482-1.455-.98-2.175-1.492-18.471-12.814-32.969-28.885-42.568-46.7A120.794,120.794,0,0,1,27.848,7.538,133.264,133.264,0,0,0,8.917,137.007c8.107,22.666,21.937,42.837,40.156,57.679a129.828,129.828,0,0,0,157.8,4.116A134.333,134.333,0,0,0,241.6,157.216a1.834,1.834,0,0,1,.156-.377l.742-1.319a133.585,133.585,0,0,0,14.981-58.644,1.127,1.127,0,0,1-.022-.2c-.015-.505-.022-1.01.007-1.515.193-2.631.312-4.99.364-7.259" transform="translate(18.684 78.234)" fill="#131313"/>
</svg>
