<?xml version="1.0" encoding="UTF-8"?>
<svg width="327px" height="439px" viewBox="0 0 327 439" version="1.1" xmlns="http://www.w3.org/2000/svg" xmlns:xlink="http://www.w3.org/1999/xlink">
    <title>Group 9</title>
    <defs>
        <polygon id="path-1" points="0 0 98.4 0 98.4 92.0103896 0 92.0103896"></polygon>
        <polygon id="path-3" points="0 0 42.64 0 42.64 42.64 0 42.64"></polygon>
        <polygon id="path-5" points="0 0 61.5 0 61.5 61.5 0 61.5"></polygon>
        <polygon id="path-7" points="0 0 41 0 41 26.2848896 0 26.2848896"></polygon>
        <polygon id="path-9" points="0 0 44.28 0 44.28 33.62 0 33.62"></polygon>
        <polygon id="path-11" points="0 0 44.28 0 44.28 43.46 0 43.46"></polygon>
    </defs>
    <g id="Page-1" stroke="none" stroke-width="1" fill="none" fill-rule="evenodd">
        <g id="Group-9" transform="translate(0.554413, 0.284719)">
            <g id="box" transform="translate(227.405587, 345.815281)">
                <mask id="mask-2" fill="white">
                    <use xlink:href="#path-1"></use>
                </mask>
                <g id="Clip-2"></g>
                <path d="M49.1942998,40.1076533 L23.710683,31.6355446 L49.1942998,23.163436 L74.6779165,31.6355446 L49.1942998,40.1076533 Z M98.2448274,13.4498607 C97.9520934,12.601768 97.2818614,11.9361763 96.4288388,11.6555235 L61.6390495,0.153362152 C60.3944976,-0.265124819 59.0486517,0.206655499 58.3278688,1.28498313 L49.1941076,14.9493591 L40.0603463,1.28498313 C39.3339893,0.201096121 37.9768031,-0.26800036 36.7491656,0.153362152 L1.95937631,11.6555235 C1.10635374,11.936368 0.436121724,12.6019597 0.14338775,13.4498607 C-0.1466553,14.2979534 -0.0255637678,15.2302036 0.472833601,15.9772689 L11.1315793,31.6355446 L0.473025809,47.2936286 C-0.0253715591,48.0405023 -0.146463091,48.9729441 0.143579959,49.8210368 C0.436313932,50.6691295 1.10654595,51.3347213 1.95956852,51.615374 L36.7493578,63.1175354 C37.9737278,63.5281625 39.3357192,63.0698014 40.0605385,61.9859144 L49.1942998,48.3215384 L58.328061,61.9859144 C59.053457,63.0709516 60.4162172,63.5279708 61.6392417,63.1175354 L96.429031,51.615374 C97.2820536,51.3345296 97.9522856,50.6689378 98.2450196,49.8210368 C98.5350626,48.9729441 98.4139711,48.040694 97.9155737,47.2936286 L87.256828,31.6353529 L97.9155737,15.9770772 C98.4137789,15.2302036 98.5348704,14.2979534 98.2448274,13.4498607 L98.2448274,13.4498607 Z" id="Fill-1" fill="#0A090B" mask="url(#mask-2)"></path>
                <path d="M86.675012,77.6439984 L86.675012,60.8569773 L63.4634952,68.5737773 C59.8345934,69.7880222 55.7317048,68.4712164 53.5301454,65.1758471 L49.194492,58.689395 L44.8582619,65.1758471 C42.6611233,68.4648902 38.5630399,69.7937732 34.9108808,68.5680262 L11.7135875,60.8565939 L11.7135875,77.6439984 C11.7135875,78.8823977 12.507602,79.9804707 13.6844964,80.3707774 L48.2651625,91.8673794 C48.3693397,91.9038029 48.4735168,91.9319832 48.577694,91.9544124 C48.577694,91.9544124 48.5805771,91.9544124 48.5805771,91.957288 L48.5834603,91.957288 C48.7862405,91.9994626 48.9917117,92.0218918 49.194492,92.0218918 C49.4113035,92.0218918 49.6252318,91.996587 49.8391602,91.948853 C49.9348802,91.9264238 50.027717,91.9011191 50.1207461,91.8702549 L84.7042954,80.3709691 C85.8809975,79.9804707 86.675012,78.8823977 86.675012,77.6439984" id="Fill-3" fill="#0A090B" mask="url(#mask-2)"></path>
            </g>
            <g id="restaurant" transform="translate(85.545587, 130.975281) rotate(200.000000) translate(-85.545587, -130.975281) translate(64.225587, 109.655281)">
                <g id="Group-4">
                    <mask id="mask-4" fill="white">
                        <use xlink:href="#path-3"></use>
                    </mask>
                    <g id="Clip-2"></g>
                    <path d="M41.5428383,36.2544934 L5.26247567,0 L3.73475425,0 L3.42289272,0.792087969 C2.5995683,2.88278047 2.24778651,5.02110984 2.40571745,6.9756375 C2.58573372,9.2035775 3.43272695,11.1325378 4.85527219,12.5540655 L20.1157349,27.8036119 L22.1285835,25.7922031 L36.2369421,41.5567608 C37.6404023,42.959217 40.0560373,43.0424983 41.5428383,41.5567608 C43.0057206,40.0948417 43.0057206,37.7163292 41.5428383,36.2544934" id="Fill-1" fill="#34E3AD" mask="url(#mask-4)"></path>
                    <path d="M1.09209871,36.2151014 C-0.370700174,37.6769372 -0.370700174,40.0554497 1.09209871,41.5172022 C2.48172432,42.9058337 4.88569161,43.028507 6.39799497,41.5172022 L18.3500753,29.5737548 L13.0440957,24.2716541 L1.09209871,36.2151014" id="Fill-3" fill="#34E3AD" mask="url(#mask-4)"></path>
                </g>
                <path d="M33.7657187,17.7039281 L42.6089347,8.86703797 L40.8403582,7.09964328 L34.060412,13.874573 L32.2917521,12.1072616 L39.071615,5.33216531 L37.3029551,3.56485391 L30.5231756,10.3397836 L28.7545157,8.57238891 L35.5344619,1.79745922 L33.765802,0.0300645312 L24.9224194,8.86703797 C23.8405716,9.94811188 23.1945965,11.3835475 23.1032549,12.9090934 C23.0801695,13.2955184 22.9925783,13.6756973 22.8470651,14.0373045 L28.5916677,19.7777978 C28.9535337,19.6323888 29.3340681,19.5447769 29.7207697,19.521708 C31.2474077,19.4306816 32.6838709,18.7850853 33.7657187,17.7039281 Z" id="Fill-5" fill="#34E3AD"></path>
            </g>
            <g id="cheers" transform="translate(151.555587, 42.005281) rotate(30.000000) translate(-151.555587, -42.005281) translate(120.805587, 11.255281)">
                <mask id="mask-6" fill="white">
                    <use xlink:href="#path-5"></use>
                </mask>
                <g id="Clip-2"></g>
                <path d="M54.9206775,21.8050069 L55.0256375,22.0458815 C54.9967325,21.9595574 54.9583975,21.8751552 54.9206775,21.8050069 Z M61.4191439,55.2364526 C61.1058701,54.1840675 59.9818468,53.5785176 58.9077184,53.8850562 L54.3054559,55.1944918 L50.6981445,43.0370491 C56.2111096,40.4763147 59.2047969,34.1339766 57.1056168,28.1087474 C48.282746,2.76774254 56.6060146,26.6729488 49.9549575,7.5749853 C49.6055304,6.57144775 48.5107897,6.01346422 47.4711786,6.30991299 L32.7595777,10.4946293 L33.4778991,7.58251264 C33.7316264,6.55206888 33.112931,5.50801185 32.0733199,5.21140292 L14.0285836,0.0795239284 C12.9889725,-0.216924844 11.8942318,0.339777443 11.5448047,1.34459624 L4.39479979,21.8770771 C2.29676486,27.8991032 5.28554445,34.2472069 10.8027629,36.8053788 L7.19496073,48.9641027 L2.59204385,47.6546672 C1.51726104,47.3481286 0.393892162,47.9530378 0.0806183298,49.0059034 C-0.230528839,50.0576479 0.386203457,51.1587205 1.46164062,51.4633372 C15.6369952,55.4978272 14.7097701,55.2689643 15.1238151,55.2689643 C16.0031085,55.2689643 16.812222,54.7058558 17.0697118,53.8381305 C17.3821677,52.7852649 16.7642903,51.6854736 15.6888531,51.378935 L11.0865906,50.0701401 L14.6943927,37.9126975 C20.6578832,38.6476534 26.7335961,34.9278699 28.2762448,28.6705747 L29.9811742,21.7580811 L33.2235175,34.902245 C34.7679656,41.1683488 40.8521852,44.8769214 46.8065146,44.1443678 L50.4144804,56.3018104 L45.8109091,57.6112459 C44.735472,57.9158627 44.1175945,59.0169352 44.4307048,60.0685196 C44.7457781,61.1327563 45.8851787,61.7251733 46.9419667,61.419916 C55.2735783,59.0500875 51.7053649,60.064836 60.038776,57.6950075 C61.1135588,57.3891096 61.7309454,56.2893182 61.4191439,55.2364526 Z M26.6729044,18.2653989 C17.6180637,16.3941361 16.016032,20.9230277 10.4366496,16.8207917 L14.7570475,4.41815021 L29.0832316,8.49331986 L26.6729044,18.2653989 Z M46.4366388,21.0130354 C43.744447,20.3586379 41.0054685,17.3914276 33.4702104,18.99539 L32.4165306,14.7238691 L46.7427147,10.6485393 L50.4004117,21.1506094 C49.0125186,21.3621755 47.6851537,21.316531 46.4366388,21.0130354 Z" id="Fill-1" fill="#FC5F77" mask="url(#mask-6)"></path>
            </g>
            <g id="shopping-bags" transform="translate(151.145587, 258.075281) rotate(20.000000) translate(-151.145587, -258.075281) translate(130.645587, 235.935281)">
                <g id="Group-3" transform="translate(0.000000, 17.995110)">
                    <mask id="mask-8" fill="white">
                        <use xlink:href="#path-7"></use>
                    </mask>
                    <g id="Clip-2"></g>
                    <path d="M10.8462917,6.54376799 C10.8462917,5.89839356 11.3547592,5.37524998 11.9820285,5.37524998 C12.6092978,5.37524998 13.1177653,5.89839356 13.1177653,6.54376799 L13.1177653,10.049322 C13.1177653,10.6945847 12.6092978,11.2177282 11.9820285,11.2177282 C11.3547592,11.2177282 10.8462917,10.6945847 10.8462917,10.049322 L10.8462917,6.54376799 Z M27.8822347,6.54376799 C27.8822347,5.89839356 28.3908109,5.37524998 29.0179715,5.37524998 C29.6452408,5.37524998 30.1537083,5.89839356 30.1537083,6.54376799 L30.1537083,10.049322 C30.1537083,10.6945847 29.6452408,11.2177282 29.0179715,11.2177282 C28.3908109,11.2177282 27.8822347,10.6945847 27.8822347,10.049322 L27.8822347,6.54376799 Z M4.03187101,22.4355683 C4.4142542,24.6499262 6.27530169,26.270128 8.46123359,26.2915995 L32.5387664,26.2915995 C34.7246983,26.270128 36.5857458,24.6499262 36.968129,22.4355683 L41,0 L0,0 L4.03187101,22.4355683 L4.03187101,22.4355683 Z" id="Fill-1" fill="#FD9090" mask="url(#mask-8)"></path>
                </g>
                <path d="M13.1177653,9.93234723 C13.1177653,5.73758115 16.4229126,2.33703603 20.5,2.33703603 C24.5770874,2.33703603 27.8822347,5.73758115 27.8822347,9.93234723 L27.8822347,16.8265923 L30.1537083,16.8265923 L30.1537083,9.93234723 C30.1537083,4.44683227 25.8316261,9.09494702e-13 20.5,9.09494702e-13 C15.1683739,9.09494702e-13 10.8462917,4.44683227 10.8462917,9.93234723 L10.8462917,16.8265923 L13.1177653,16.8265923 L13.1177653,9.93234723" id="Fill-4" fill="#FD9090"></path>
            </g>
            <g id="lotus" transform="translate(197.885587, 158.445281) rotate(-40.000000) translate(-197.885587, -158.445281) translate(175.745587, 138.355281)" fill="#8CA4FF">
                <path d="M22.14,31.8509663 L23.11785,30.6397106 C29.8921134,22.2435234 29.8921134,9.58215132 23.11785,1.18608868 L22.14,-2.27373675e-13 L21.16215,1.18608868 C14.3878866,9.58215132 14.3878866,22.2435234 21.16215,30.6397106 L22.14,31.8509663 Z" id="Fill-1"></path>
                <path d="M36.3834,30.2970905 C30.9204703,34.2630122 26.4268575,34.4123946 22.14,34.7419329 C22.4025666,34.7618672 14.3677069,35.0041931 7.89129562,30.2985856 C3.12197062,31.3268198 0,32.8588925 0,34.5734884 C0,37.6697779 9.96011719,40.18 22.14,40.18 C34.3198828,40.18 44.28,37.6697779 44.28,34.5734884 C44.28,32.8583942 41.1561844,31.3254493 36.3834,30.2970905 Z" id="Fill-2"></path>
                <path d="M38.1594431,10.3408992 C38.3382928,18.2405987 35.0473894,25.9106804 29.2411744,30.8513876 C37.4121028,28.2603071 43.5768244,20.3664633 44.1786403,10.8908357 L44.28,9.28675045 L42.7953516,9.39626431 C41.2034625,9.51449941 39.6346359,9.85126388 38.1594431,10.3408992 Z" id="Fill-3"></path>
                <path d="M15.0402094,30.8513876 C9.23445562,25.9120509 5.94355219,18.2410971 6.12147937,10.3413976 C4.64582531,9.85126388 3.07699875,9.51449941 1.48464844,9.39626431 L0,9.28675045 L0.101359687,10.8908357 C0.703175625,20.3664633 6.86824312,28.2613038 15.0402094,30.8513876 Z" id="Fill-4"></path>
                <path d="M27.5970487,28.6871495 C34.3860722,22.9443374 37.3491422,13.0054873 34.5247931,3.91820409 L34.0509741,2.39348211 L32.7172697,3.10937135 C31.3064212,3.86712254 30.02184,4.79917395 28.8439228,5.84497526 C31.7789719,13.1704433 31.3749169,21.7145179 27.5970487,28.6871495 Z" id="Fill-5"></path>
                <path d="M16.6838737,28.6876479 C12.9046219,21.7145179 12.5010281,13.1704433 15.4356159,5.84497526 C14.2578141,4.79917395 12.9735787,3.86712254 11.5627303,3.10937135 L10.2290259,2.39348211 L9.75520687,3.91820409 C6.93224156,13.004989 9.89519625,22.9448357 16.6838737,28.6876479 Z" id="Fill-6"></path>
            </g>
            <g id="fitness" transform="translate(292.185587, 191.245281) rotate(20.000000) translate(-292.185587, -191.245281) translate(270.045587, 174.435281)">
                <g id="Group-4" transform="translate(0.000000, 0.000000)">
                    <mask id="mask-10" fill="white">
                        <use xlink:href="#path-9"></use>
                    </mask>
                    <g id="Clip-2"></g>
                    <path d="M28.8803443,21.8638802 C27.4060453,21.1548385 26.09574,20.1741646 24.9859289,18.9490482 C24.8471917,18.7959416 24.7125197,18.6399313 24.5818265,18.4811933 L24.4994838,18.5584505 L20.658868,19.6411954 C20.6505645,16.9531194 19.4312514,14.4485074 17.3762283,12.812555 C17.8100848,11.7737182 18.0552102,10.6549844 18.0930083,9.52041206 C18.1750051,7.0622599 17.3110979,4.71876167 15.6605232,2.92160747 C14.0099484,1.12445327 11.7702596,0.0888721966 9.3539489,0.00545552098 C4.37030816,-0.168505204 0.17601633,3.82080052 0.00112442864,8.89417105 C-0.115989139,12.2899689 1.4103795,17.1010344 3.98445615,21.4500526 C6.16991296,25.1423844 10.0808488,30.214435 16.3021395,33.4089945 L16.7233677,33.6252795 L17.1827401,33.5157292 C20.4562114,32.7353257 26.5537284,29.133186 29.7294609,26.103788 C30.7868563,25.0951325 31.7878572,24.0327138 32.7051315,22.9910613 C31.3776138,22.8251078 30.0949867,22.447973 28.8803443,21.8638802" id="Fill-1" fill="#FFCC54" mask="url(#mask-10)"></path>
                    <path d="M39.1150668,10.4569138 C39.0621321,11.776446 38.5072698,12.9958429 37.5527164,13.8908123 C36.6203921,14.7649276 35.43905,15.1968816 34.2612543,15.1968816 C32.949738,15.1968816 31.64246,14.6618006 30.6856577,13.6055414 C28.8697054,11.6008134 28.9955549,8.46696856 30.9660729,6.61957077 C32.9366773,4.77217298 36.0171794,4.90028973 37.8331316,6.90484172 C38.7127808,7.87601245 39.1680014,9.13746969 39.1150668,10.4569138 Z M34.6681245,0.0697778732 C34.5273979,0.0638823908 34.3869308,0.0609786458 34.2469827,0.0609786458 C31.7263597,0.0609786458 29.333489,1.01076725 27.4687538,2.75899775 C25.5004847,4.60419573 24.3564218,7.11875094 24.2472658,9.83938405 C24.0218611,15.4556669 28.3298067,20.2113853 33.8505783,20.4407812 C33.990613,20.4465887 34.1299556,20.4494924 34.2692983,20.4494924 C36.7906998,20.4494924 39.1847813,19.5002318 41.049949,17.7515613 C43.0182181,15.9063633 44.162281,13.3918081 44.271437,10.671175 C44.3806796,7.9505419 43.4418682,5.3494023 41.6280783,3.3471381 C39.8142884,1.34469793 37.3424483,0.180824123 34.6681245,0.0697778732 L34.6681245,0.0697778732 Z" id="Fill-3" fill="#FFCC54" mask="url(#mask-10)"></path>
                </g>
                <path d="M35.9248897,8.69381264 C35.5149057,8.24126838 34.9562377,7.97817148 34.3517275,7.95300569 C33.7476499,7.92871982 33.1693476,8.14377294 32.7244198,8.56085632 C32.279492,8.97793969 32.02096,9.54628179 31.9962225,10.1612598 C31.9715716,10.7762378 32.1837426,11.3641142 32.5937266,11.8167464 C33.4400754,12.7510484 34.8757978,12.8107072 35.7941965,11.9497028 C36.2390378,11.5326194 36.4976564,10.9642773 36.5223073,10.3492993 C36.5471312,9.73423329 36.3348737,9.14635691 35.9248897,8.69381264" id="Fill-5" fill="#FFCC54"></path>
            </g>
            <g id="suitcase" transform="translate(253.645587, 287.595281) rotate(40.000000) translate(-253.645587, -287.595281) translate(232.325587, 268.735281)" fill="#8FC7F4">
                <polygon id="Fill-1" points="5.01641833 5.02933333 12.5412679 5.02933333 12.5412679 2.51444401 5.01641833 2.51444401"></polygon>
                <polygon id="Fill-2" points="30.0988431 5.02933333 37.6236927 5.02933333 37.6236927 2.51444401 30.0988431 2.51444401"></polygon>
                <polygon id="Fill-3" points="21.4062794 16.9891405 26.2622425 15.7319185 26.8894058 18.1659841 22.0335537 19.4235401"></polygon>
                <path d="M4.89238479,7.54377734 C2.19484958,7.54377734 -1.13686838e-13,9.74416634 -1.13686838e-13,12.4490918 L-1.13686838e-13,32.8151309 C-1.13686838e-13,35.519945 2.19484958,37.72 4.89238479,37.72 L7.52484958,37.72 L7.52484958,7.54377734 L4.89238479,7.54377734 Z" id="Fill-4"></path>
                <path d="M32.6071633,7.54377734 L27.7604167,7.54377734 L26.5849296,2.2400216 C26.2925569,0.921012809 25.147051,4.54747351e-13 23.7993383,4.54747351e-13 L18.8406617,4.54747351e-13 C17.492949,4.54747351e-13 16.3474431,0.921012809 16.0550704,2.2400216 L14.8795833,7.54377734 L10.0328367,7.54377734 L10.0328367,37.72 L32.6071633,37.72 L32.6071633,7.54377734 Z M28.0718885,12.6665145 L29.9548221,19.970715 L20.240786,22.4872742 L18.3582967,15.1831851 L28.0718885,12.6665145 Z M18.5036502,2.78530394 C18.5387394,2.62577156 18.6775415,2.51444401 18.8406617,2.51444401 L23.7993383,2.51444401 C23.9624585,2.51444401 24.1008165,2.62577156 24.1363498,2.78530394 L25.1912456,7.54377734 L17.4487544,7.54377734 L18.5036502,2.78530394 Z M16.7217646,32.6906667 C14.4163175,32.6906667 12.5411569,30.8107897 12.5411569,28.4998524 C12.5411569,26.1884699 14.4163175,24.3084816 16.7217646,24.3084816 C19.0267675,24.3084816 20.9018171,26.1884699 20.9018171,28.4998524 C20.9018171,30.8107897 19.0267675,32.6906667 16.7217646,32.6906667 Z" id="Fill-5"></path>
                <path d="M18.39383,28.4998524 C18.39383,29.4256523 17.6451871,30.1762227 16.7217646,30.1762227 C15.7978979,30.1762227 15.0495881,29.4256523 15.0495881,28.4998524 C15.0495881,27.5736072 15.7978979,26.8233709 16.7217646,26.8233709 C17.6451871,26.8233709 18.39383,27.5736072 18.39383,28.4998524 Z" id="Fill-6"></path>
                <path d="M37.7476152,7.54377734 L35.1151504,7.54377734 L35.1151504,37.72 L37.7476152,37.72 C40.4451504,37.72 42.64,35.519945 42.64,32.8151309 L42.64,12.4490918 C42.64,9.74416634 40.4451504,7.54377734 37.7476152,7.54377734 Z" id="Fill-7"></path>
            </g>
            <g id="cardiogram" transform="translate(23.225587, 240.855281) rotate(-80.000000) translate(-23.225587, -240.855281) translate(1.085587, 221.175281)" fill="#02C7CB">
                <path d="M22.1273838,3.61974594 C12.4756812,-4.69617707 0.203489523,2.61068472 0.00249887087,12.5161376 C-0.0488154379,15.0404377 0.690802487,17.4996481 2.16335018,19.7666564 L11.7072351,19.7666564 L13.4049891,16.9791575 C13.8977218,16.17025 15.09052,16.1440097 15.611735,16.9507588 L19.1931279,22.4950862 L24.4142723,11.637483 C24.8696435,10.6901037 26.2264169,10.6600011 26.7286053,11.5789818 L31.2041355,19.7666564 L42.0914175,19.7666564 C50.1565277,7.34928525 34.2171503,-6.79676921 22.1273838,3.61974594 Z" id="Fill-1"></path>
                <path d="M29.287056,21.6502828 L25.6605758,15.0156741 L20.5323737,25.6801663 C20.0962597,26.5876739 18.8129407,26.6666222 18.265665,25.819547 L14.5495865,20.0670007 L13.5540889,21.7017412 C13.3198881,22.0864862 12.8973811,22.3220815 12.4418945,22.3220815 L4.21557659,22.3220815 C4.47318596,22.587893 3.09888498,21.2366847 21.2124901,38.9881195 C21.7183684,39.4837329 22.5363992,39.4841873 23.0421623,38.9881195 C40.8769404,21.5099934 39.7819276,22.5874386 40.0391911,22.3220815 L30.4294624,22.3220815 C29.9519511,22.3220815 29.5131849,22.0637673 29.287056,21.6502828 Z" id="Fill-3"></path>
            </g>
            <g id="camping-tent" transform="translate(137.205587, 376.565281) rotate(50.000000) translate(-137.205587, -376.565281) translate(115.065587, 354.835281)">
                <mask id="mask-12" fill="white">
                    <use xlink:href="#path-11"></use>
                </mask>
                <g id="Clip-2"></g>
                <path d="M42.9825823,40.684552 L41.0401751,40.684552 L23.6774399,11.6637277 L27.4440164,5.36799396 C27.8301279,4.72260979 27.6537656,3.86434876 27.0503799,3.45126958 C26.4469077,3.0381904 25.6444981,3.22645829 25.2579541,3.87221252 L23.4429533,6.90605473 L23.4429533,1.387724 C23.4429533,0.621237776 22.8621427,2.27373675e-13 22.1455356,2.27373675e-13 C21.4289286,2.27373675e-13 20.848118,0.621237776 20.848118,1.387724 L20.848118,6.90605473 L19.0330307,3.87193498 C18.6465732,3.22645829 17.8440771,3.0381904 17.2406914,3.45126958 C16.6372192,3.86434876 16.4608569,4.72260979 16.8474009,5.36799396 L20.6139773,11.6637277 L3.25115568,40.684552 L1.292228,40.684552 C0.575620971,40.684552 -0.00518967066,41.3057898 -0.00518967066,42.072276 C-0.00518967066,42.8383922 0.575620971,43.46 1.292228,43.46 L42.9825823,43.46 C43.6991894,43.46 44.28,42.8383922 44.28,42.072276 C44.28,41.3057898 43.6991894,40.684552 42.9825823,40.684552 Z M31.3963831,40.684552 L23.4348228,27.3775741 L23.4348228,40.684552 L20.8399875,40.684552 L20.8399875,27.3775741 L12.8784272,40.684552 L9.79809821,40.684552 L20.2743999,23.1738806 C20.6829135,22.4908428 21.3791943,22.083222 22.1374052,22.083222 C22.8952701,22.083222 23.5915509,22.4908428 24.0000645,23.1735105 L34.4767121,40.684552 L31.3963831,40.684552 Z" id="Fill-1" fill="#FEB15B" mask="url(#mask-12)"></path>
            </g>
        </g>
    </g>
</svg>