<svg id="park-tickets-couple" xmlns="http://www.w3.org/2000/svg" xmlns:xlink="http://www.w3.org/1999/xlink" width="102.5" height="102.5" viewBox="0 0 102.5 102.5">
  <defs>
    <clipPath id="clip-path">
      <path id="Clip_2" data-name="Clip 2" d="M0,0H102.5V102.5H0Z" fill="none"/>
    </clipPath>
  </defs>
  <path id="Clip_2-2" data-name="Clip 2" d="M0,0H102.5V102.5H0Z" fill="none"/>
  <g id="park-tickets-couple-2" data-name="park-tickets-couple" clip-path="url(#clip-path)">
    <path id="Fill_1" data-name="Fill 1" d="M86.149.759a5.181,5.181,0,0,1-4.944,4.078,1.685,1.685,0,0,0-.645,3.2,5.175,5.175,0,0,1,2.987,5.67L83.11,15.9a5.454,5.454,0,0,1-6.546,3.994c-.781-.187-1.582-.333-2.373-.489-1.166-.229-2.332-.468-3.5-.7-1.541-.312-3.081-.614-4.622-.925-1.831-.364-3.674-.739-5.506-1.1-2.05-.416-4.1-.822-6.151-1.238-2.186-.437-4.382-.874-6.567-1.321-2.248-.448-4.5-.905-6.734-1.353s-4.444-.894-6.671-1.342l-6.37-1.28c-1.946-.385-3.882-.78-5.828-1.165C20.56,8.645,18.874,8.3,17.2,7.968c-1.343-.27-2.685-.541-4.038-.811L10.381,6.6c-.427-.083-.853-.177-1.28-.26-.021,0-.042-.011-.062-.011a5.268,5.268,0,0,1-.375,3.318,5.335,5.335,0,0,1-5.849,3,1.57,1.57,0,0,0-1.759.77L.119,15.438a1.572,1.572,0,0,0,.551,1.841c.1.083,75.123,34.651,75.247,34.682a1.571,1.571,0,0,0,1.759-.77l.937-2.028a1.572,1.572,0,0,0-.552-1.841A5.324,5.324,0,0,1,82.4,37.938a1.57,1.57,0,0,0,1.759-.77L85.1,35.14a1.572,1.572,0,0,0-.552-1.841,5.324,5.324,0,0,1,4.34-9.383,1.57,1.57,0,0,0,1.759-.77l.937-2.028a1.572,1.572,0,0,0-.552-1.841,5.323,5.323,0,0,1,4.34-9.383,1.57,1.57,0,0,0,1.759-.77l1.03-2.247a1.281,1.281,0,0,0-.625-1.706L86.326,0Z" transform="translate(4.219 50.504)"/>
    <path id="Fill_3" data-name="Fill 3" d="M82.227,66.847h0c-.075,0-20.714-4.133-40.625-8.127C22.906,54.97,1.051,50.579.985,50.546a1.542,1.542,0,0,1-.958-1.653l.437-2.185a1.586,1.586,0,0,1,1.53-1.155A5.327,5.327,0,0,0,4.034,35.411a1.569,1.569,0,0,1-.967-1.665L3.5,31.561a1.586,1.586,0,0,1,1.53-1.155A5.327,5.327,0,0,0,7.073,20.264,1.572,1.572,0,0,1,6.106,18.6l.436-2.184a1.588,1.588,0,0,1,1.53-1.155,5.327,5.327,0,0,0,2.04-10.142,1.573,1.573,0,0,1-.968-1.665l.49-2.423A1.294,1.294,0,0,1,10.893,0c.094,0,78.093,15.636,81.413,16.3l.048.01a1.284,1.284,0,0,1,1.009,1.508l-.489,2.425a1.585,1.585,0,0,1-1.53,1.154A5.327,5.327,0,0,0,89.3,31.541a1.57,1.57,0,0,1,.968,1.664l-.438,2.185a1.585,1.585,0,0,1-1.529,1.155,5.327,5.327,0,0,0-2.04,10.142,1.568,1.568,0,0,1,.967,1.664l-.114.593-.322,1.6a1.586,1.586,0,0,1-1.53,1.155,5.327,5.327,0,0,0-2.039,10.143,1.571,1.571,0,0,1,.968,1.664l-.437,2.184A1.584,1.584,0,0,1,82.227,66.847ZM72.9,21.8a2.607,2.607,0,0,0-2.55,2.089L67.167,39.749,64.8,51.493a2.6,2.6,0,0,0,2.04,3.058,2.766,2.766,0,0,0,.509.052,2.61,2.61,0,0,0,2.55-2.091L75.452,24.9a2.6,2.6,0,0,0-2.039-3.058A2.61,2.61,0,0,0,72.9,21.8ZM25.984,12.38a2.607,2.607,0,0,0-2.55,2.09L19.3,35.1l-1.01,5.035-.385,1.946a2.578,2.578,0,0,0,1.822,3.006,1.28,1.28,0,0,0,.209.052,2.845,2.845,0,0,0,.509.052A2.61,2.61,0,0,0,23,43.1l1.926-9.634,2.425-12.077,1.186-5.9a2.6,2.6,0,0,0-2.55-3.11Z" transform="translate(-0.008)"/>
  </g>
</svg>
