<svg id="button" xmlns="http://www.w3.org/2000/svg" xmlns:xlink="http://www.w3.org/1999/xlink" width="26" height="26" viewBox="0 0 26 26">
  <defs>
    <clipPath id="clip-path">
      <path id="Clip_2" data-name="Clip 2" d="M0,0H26V26H0Z" fill="none"/>
    </clipPath>
  </defs>
  <path id="Clip_2-2" data-name="Clip 2" d="M0,0H26V26H0Z" fill="none"/>
  <g id="button-2" data-name="button" clip-path="url(#clip-path)">
    <path id="Fill_1" data-name="Fill 1" d="M13,26A12.994,12.994,0,0,1,0,13a1.016,1.016,0,0,1,2.031,0A10.97,10.97,0,1,0,13,2.031,1.016,1.016,0,0,1,13,0a13,13,0,0,1,9.2,22.195A12.918,12.918,0,0,1,13,26Zm0-7.922a1.017,1.017,0,0,1-1.015-1.016V14.016H8.939a1.016,1.016,0,1,1,0-2.031h3.047V8.938a1.016,1.016,0,1,1,2.031,0v3.047h3.047a1.016,1.016,0,0,1,0,2.031H14.017v3.047A1.017,1.017,0,0,1,13,18.078ZM1.656,10.087a1.016,1.016,0,0,1-.938-1.4l.545-1.314a1.016,1.016,0,1,1,1.876.778L2.595,9.459A1.013,1.013,0,0,1,1.656,10.087ZM4.024,6.044A1.016,1.016,0,0,1,3.306,4.31L4.311,3.3A1.016,1.016,0,0,1,5.747,4.741L4.742,5.747A1.01,1.01,0,0,1,4.024,6.044ZM7.759,3.216a1.016,1.016,0,0,1-.389-1.954L8.683.717a1.016,1.016,0,0,1,.778,1.877l-1.314.545A1.011,1.011,0,0,1,7.759,3.216Z" transform="translate(-0.003)" fill="#0a090b"/>
  </g>
</svg>
