<svg id="suitcase_1_" data-name="suitcase (1)" xmlns="http://www.w3.org/2000/svg" width="18" height="14" viewBox="0 0 18 14">
  <path id="Fill_1" data-name="Fill 1" d="M5.25,3.15a.727.727,0,0,1-.75-.7V1.4h-3V2.45a.727.727,0,0,1-.75.7A.727.727,0,0,1,0,2.45V1.4A1.454,1.454,0,0,1,1.5,0h3A1.454,1.454,0,0,1,6,1.4V2.45A.727.727,0,0,1,5.25,3.15Z" transform="translate(6)"/>
  <path id="Fill_3" data-name="Fill 3" d="M9.532,2.632A1.642,1.642,0,0,1,9,2.716a1.751,1.751,0,0,1-.578-.1L0,0V5.341A2,2,0,0,0,2.063,7.266H15.938A2,2,0,0,0,18,5.341V0Z" transform="translate(0 6.734)"/>
  <path id="Fill_4" data-name="Fill 4" d="M18,1.925v1.6L9.18,6.272a.592.592,0,0,1-.36,0L0,3.528v-1.6A2,2,0,0,1,2.063,0H15.938A2,2,0,0,1,18,1.925Z" transform="translate(0 2.1)"/>
</svg>
