<?xml version="1.0" encoding="UTF-8"?>
<svg width="308px" height="308px" viewBox="0 0 308 308" version="1.1" xmlns="http://www.w3.org/2000/svg" xmlns:xlink="http://www.w3.org/1999/xlink">
    <title>qr-code</title>
    <defs>
        <polygon id="path-1" points="-2.84217094e-14 0 163.428242 0 163.428242 71.7395882 -2.84217094e-14 71.7395882"></polygon>
        <polygon id="path-3" points="0 0 124.196367 0 124.196367 307.5 0 307.5"></polygon>
    </defs>
    <g id="Page-1" stroke="none" stroke-width="1" fill="none" fill-rule="evenodd">
        <g id="qr-code" transform="translate(0.140000, 0.160000)">
            <g id="Group-4" transform="translate(144.071758, 235.760412)">
                <mask id="mask-2" fill="white">
                    <use xlink:href="#path-1"></use>
                </mask>
                <g id="Clip-2"></g>
                <path d="M144.030918,0 L111.049141,0 C100.353906,0 91.6518164,8.70344976 91.6518164,19.4003555 L91.6518164,52.3872871 C91.6518164,63.0841928 100.353906,71.7876426 111.049141,71.7876426 L144.030918,71.7876426 C154.726152,71.7876426 163.428242,63.0841928 163.428242,52.3872871 L163.428242,19.4003555 C163.428242,8.70344976 154.726152,0 144.030918,0 Z" id="Fill-1" fill="#000000" mask="url(#mask-2)"></path>
                <path d="M52.3791016,0 L19.3973242,0 C8.70208984,0 -2.84217094e-14,8.70344976 -2.84217094e-14,19.4003555 L-2.84217094e-14,52.3872871 C-2.84217094e-14,63.0841928 8.70208984,71.7876426 19.3973242,71.7876426 L52.3791016,71.7876426 C63.0743359,71.7876426 71.7764258,63.0841928 71.7764258,52.3872871 L71.7764258,19.4003555 C71.7764258,8.70344976 63.0743359,0 52.3791016,0 Z" id="Fill-3" fill="#000000" mask="url(#mask-2)"></path>
            </g>
            <path d="M288.102676,144.094273 L255.120898,144.094273 C244.425664,144.094273 235.723574,152.797722 235.723574,163.494628 L235.723574,196.48156 C235.723574,207.178465 244.425664,215.881915 255.120898,215.881915 L288.102676,215.881915 C298.79791,215.881915 307.5,207.178465 307.5,196.48156 L307.5,163.494628 C307.5,152.797722 298.79791,144.094273 288.102676,144.094273 Z" id="Fill-5" fill="#000000"></path>
            <path d="M153.75,71.7876426 C159.096016,71.7876426 163.428242,67.4515354 163.428242,62.107888 L163.428242,9.67975465 C163.428242,4.33290358 159.096016,0 153.75,0 C148.403984,0 144.071758,4.33290358 144.071758,9.67975465 L144.071758,62.107888 C144.071758,67.4515354 148.403984,71.7876426 153.75,71.7876426 Z" id="Fill-6" fill="#000000"></path>
            <path d="M153.75,147.426043 L164.373164,147.426043 L164.373164,166.647797 C164.373164,171.994648 168.705391,176.327551 174.051406,176.327551 C179.393418,176.327551 183.726445,171.994648 183.726445,166.647797 L183.726445,137.746288 C183.726445,132.402641 179.393418,128.069737 174.051406,128.069737 L163.428242,128.069737 L163.428242,105.810146 C163.428242,100.464096 159.096016,96.1303915 153.75,96.1303915 C148.403984,96.1303915 144.071758,100.464096 144.071758,105.810146 L144.071758,137.746288 C144.071758,143.09314 148.403984,147.426043 153.75,147.426043 Z" id="Fill-7" fill="#000000"></path>
            <path d="M46.9113672,163.453782 C52.2541797,163.453782 56.5896094,159.120878 56.5896094,153.774027 C56.5896094,148.427176 52.2541797,144.094273 46.9113672,144.094273 L9.67824219,144.094273 C4.33222656,144.094273 -5.68434189e-14,148.427176 -5.68434189e-14,153.774027 C-5.68434189e-14,159.120878 4.33222656,163.453782 9.67824219,163.453782 L46.9113672,163.453782 Z" id="Fill-8" fill="#000000"></path>
            <path d="M111.098789,163.453782 C116.444805,163.453782 120.777031,159.120878 120.777031,153.774027 C120.777031,148.427176 116.444805,144.094273 111.098789,144.094273 L82.4332227,144.094273 C77.0880078,144.094273 72.7549805,148.427176 72.7549805,153.774027 C72.7549805,159.120878 77.0880078,163.453782 82.4332227,163.453782 L111.098789,163.453782 Z" id="Fill-9" fill="#000000"></path>
            <path d="M206.169941,173.934443 C200.827129,173.934443 196.494902,178.267346 196.494902,183.614198 L196.494902,196.522406 L153.75,196.522406 C148.407187,196.522406 144.071758,200.855309 144.071758,206.20216 C144.071758,211.549012 148.407187,215.881915 153.75,215.881915 L206.169941,215.881915 C211.515957,215.881915 215.848184,211.549012 215.848184,206.20216 L215.848184,183.614198 C215.848184,178.267346 211.515957,173.934443 206.169941,173.934443 Z" id="Fill-10" fill="#000000"></path>
            <g id="Group-14" transform="translate(-0.000000, 0.000000)">
                <mask id="mask-4" fill="white">
                    <use xlink:href="#path-3"></use>
                </mask>
                <g id="Clip-12"></g>
                <path d="M95.0767578,0 L29.1156055,0 C13.0623437,0 0,13.0643851 0,29.1201555 L0,95.0948195 C0,111.15059 13.0623437,124.215776 29.1156055,124.215776 L95.0799609,124.215776 C111.133223,124.215776 124.196367,111.15059 124.196367,95.0948195 L124.196367,29.1201555 C124.196367,13.0643851 111.133223,0 95.0767578,0 Z M77.285,66.6722535 C77.285,72.5380919 72.5267578,77.2970777 66.6618359,77.2970777 L57.5345312,77.2970777 C51.6664062,77.2970777 46.9113672,72.5380919 46.9113672,66.6722535 L46.9113672,57.5435224 C46.9113672,51.6744804 51.6664062,46.9186982 57.5345312,46.9186982 L66.6618359,46.9186982 C72.5267578,46.9186982 77.285,51.6744804 77.285,57.5435224 L77.285,66.6722535 Z" id="Fill-11" fill="#000000" mask="url(#mask-4)"></path>
                <path d="M95.0767578,183.332278 L29.1156055,183.332278 C13.0623437,183.332278 0,196.397464 0,212.456439 L0,278.427899 C0,294.483669 13.0623437,307.548054 29.1156055,307.548054 L95.0799609,307.548054 C111.133223,307.548054 124.196367,294.483669 124.196367,278.427899 L124.196367,212.456439 C124.196367,196.397464 111.133223,183.332278 95.0767578,183.332278 Z M77.285,250.004532 C77.285,255.873574 72.5267578,260.629356 66.6618359,260.629356 L57.5345312,260.629356 C51.6664062,260.629356 46.9113672,255.873574 46.9113672,250.004532 L46.9113672,240.875801 C46.9113672,235.009962 51.6664062,230.250977 57.5345312,230.250977 L66.6618359,230.250977 C72.5267578,230.250977 77.285,235.009962 77.285,240.875801 L77.285,250.004532 Z" id="Fill-13" fill="#FBBA00" mask="url(#mask-4)"></path>
            </g>
            <path d="M278.384395,0 L212.423242,0 C196.366777,0 183.303633,13.0643851 183.303633,29.1201555 L183.303633,95.0948195 C183.303633,111.15059 196.366777,124.215776 212.423242,124.215776 L278.384395,124.215776 C294.437656,124.215776 307.5,111.15059 307.5,95.0948195 L307.5,29.1201555 C307.5,13.0643851 294.437656,0 278.384395,0 Z M260.588633,66.6722535 C260.588633,72.5380919 255.833594,77.2970777 249.965469,77.2970777 L240.838164,77.2970777 C234.973242,77.2970777 230.215,72.5380919 230.215,66.6722535 L230.215,57.5435224 C230.215,51.6744804 234.973242,46.9186982 240.838164,46.9186982 L249.965469,46.9186982 C255.833594,46.9186982 260.588633,51.6744804 260.588633,57.5435224 L260.588633,66.6722535 Z" id="Fill-15" fill="#000000"></path>
        </g>
    </g>
</svg>