<svg xmlns="http://www.w3.org/2000/svg" xmlns:xlink="http://www.w3.org/1999/xlink" width="60.68" height="56.58" viewBox="0 0 60.68 56.58">
  <defs>
    <clipPath id="clip-path">
      <path id="Clip_2" data-name="Clip 2" d="M0,0H-60.68V56.58H0Z" fill="none"/>
    </clipPath>
  </defs>
  <g id="squirrel-with-acorn" transform="translate(60.68)">
    <path id="Clip_2-2" data-name="Clip 2" d="M0,0H-60.68V56.58H0Z" fill="none"/>
    <g id="squirrel-with-acorn-2" data-name="squirrel-with-acorn" clip-path="url(#clip-path)">
      <path id="Fill_1" data-name="Fill 1" d="M-22.027,56.58a2.89,2.89,0,0,0,1.229-.187.138.138,0,0,0,.08-.12c-.008-.188-.494-.437-.849-.619-.127-.065-.236-.121-.307-.165a8.107,8.107,0,0,1,2.437.55c-.176-.728-1.427-2.317-2.078-2.317h-.026a4.7,4.7,0,0,1,3.138-.807,16.657,16.657,0,0,1,4.473.678,2.176,2.176,0,0,0-1.188-2.16,9.362,9.362,0,0,0-3.376-.976,5.329,5.329,0,0,1,1.376-2.827,8.086,8.086,0,0,0,1.725-3.349,8.089,8.089,0,0,0-1.562-6.624,8.027,8.027,0,0,1-1.5-3.354c-1.109-7.4,4.491-9.647,6.233-10.158a8.37,8.37,0,0,1,2.2-.322,2.483,2.483,0,0,1,1.165.21,2.711,2.711,0,0,0-1.317-2.46,7.541,7.541,0,0,0-2.931-.475c-.6,0-1.206.037-1.773.076l-.142.01c-.5.034-.975.066-1.38.066a1.967,1.967,0,0,1-1.255-.27,19.282,19.282,0,0,0-.768-4.38.225.225,0,0,1,0-.214c.058-.083.2-.121.474-.121.2,0,.439.019.721.041l.142.011c.326.026.708.053,1.111.053a3.994,3.994,0,0,0,2.854-.9,4.733,4.733,0,0,1,.761-.524c.665-.4,1.418-.855,1.429-1.708.04-2.381-4.056-5.242-8.133-7.022.048-.332.071-2.636-.577-3.384A.577.577,0,0,0-20.08,2.6a.693.693,0,0,0-.269.06A5.874,5.874,0,0,0-22.6,4.587l0-.016C-22.836,3.808-24.067,0-25.163,0a.508.508,0,0,0-.3.105c-.812.591-1.246,2.846-1.594,4.658a9.858,9.858,0,0,1-.525,2.111,2.416,2.416,0,0,1-.7.693A5.154,5.154,0,0,0-30.1,9.941a6.315,6.315,0,0,0-.486,3.921,4.047,4.047,0,0,1-.472,3.061,46.438,46.438,0,0,1-2.752,3.934c-3.7,4.966-8.776,11.767-8.264,19.694a19.3,19.3,0,0,0,.872,4.692.014.014,0,0,0-.015.014c-3.753-10.119.421-17.571,4.1-24.146a51.357,51.357,0,0,0,3.636-7.353c-1.14-4.388-3.9-10.05-10.582-12.112a13.414,13.414,0,0,0-3.916-.586,13.272,13.272,0,0,0-5.5,1.2A12.532,12.532,0,0,0-57.89,5.626a11.979,11.979,0,0,0-2.408,4.8,14.217,14.217,0,0,0-.1,6.117,9.284,9.284,0,0,1,7.054-3.852,4.308,4.308,0,0,1,3.684,1.747c1.535,2.213.613,5.6-2.668,9.793a19.129,19.129,0,0,0-3.835,7.378,13.36,13.36,0,0,0,.284,6.923,16.335,16.335,0,0,0,2.914,5.747,14.8,14.8,0,0,0,4.255,3.581c3.181,1.825,6.992,2.7,10.678,3.537q.638.146,1.273.292c3.088,2.339,6.875,3.086,9.64,3.631a11.5,11.5,0,0,1,3.257.906A3.834,3.834,0,0,0-22.027,56.58Zm3.843-47.734a2.532,2.532,0,0,1,1.2.332A2.166,2.166,0,0,1-15.927,10.4a.853.853,0,0,1-.073.668,1.049,1.049,0,0,1-.956.446,2.5,2.5,0,0,1-1.207-.345,2.185,2.185,0,0,1-1.063-1.214.86.86,0,0,1,.065-.667A1.093,1.093,0,0,1-18.184,8.846Zm6.051,25.136c2.088,0,5.771-.3,6.971-2.349l2.233-3.758c-.095.006-.2.009-.313.009a13.149,13.149,0,0,1-5.935-1.931c-.445-.248-.922-.543-1.418-.875a6.2,6.2,0,0,0-1.276.167,7.811,7.811,0,0,0-4.6,3.436,17.43,17.43,0,0,0,2.582,5.228h.007C-13.7,33.927-13.034,33.982-12.133,33.982ZM-2.886,27.2h0a2.216,2.216,0,0,0,2.072-.906,4.747,4.747,0,0,0,.479-4.381,8.016,8.016,0,0,0-3.173-3.491L-.943,16.6l-.708-2.373-2.742,3.628A10.1,10.1,0,0,0-9.17,16.4a4.974,4.974,0,0,0-4.5,2.663,1.609,1.609,0,0,0-.185.93c.213-.012.464-.025.753-.025a8.485,8.485,0,0,1,3.391.564,3.808,3.808,0,0,1,2.045,3.545l-.075,1.741A12.025,12.025,0,0,0-2.886,27.2ZM-17.026,11.175h0a.84.84,0,0,0,.762-.386,1.028,1.028,0,0,0-.549-1.328,1.4,1.4,0,0,0-.683-.186.852.852,0,0,0-.767.385.722.722,0,0,0-.074.572,1.286,1.286,0,0,0,.627.756A1.393,1.393,0,0,0-17.026,11.175Z"/>
    </g>
  </g>
</svg>
