<svg id="statistics_1_" data-name="statistics (1)" xmlns="http://www.w3.org/2000/svg" xmlns:xlink="http://www.w3.org/1999/xlink" width="15" height="15" viewBox="0 0 15 15">
  <defs>
    <clipPath id="clip-path">
      <path id="Clip_2" data-name="Clip 2" d="M0,0H4.285V9.109H0Z" fill="none"/>
    </clipPath>
  </defs>
  <g id="Group_3" data-name="Group 3" transform="translate(0 5.891)">
    <path id="Clip_2-2" data-name="Clip 2" d="M0,0H4.285V9.109H0Z" fill="none"/>
    <g id="Group_3-2" data-name="Group 3" clip-path="url(#clip-path)">
      <path id="Fill_1" data-name="Fill 1" d="M.537,0H3.75a.536.536,0,0,1,.537.537V8.572a.536.536,0,0,1-.537.537H.537A.536.536,0,0,1,0,8.572V.537A.538.538,0,0,1,.537,0" transform="translate(-0.002)"/>
    </g>
  </g>
  <path id="Fill_4" data-name="Fill 4" d="M.537,0H3.75a.536.536,0,0,1,.537.537V14.463A.536.536,0,0,1,3.75,15H.537A.536.536,0,0,1,0,14.463V.534A.536.536,0,0,1,.537,0" transform="translate(5.355)"/>
  <path id="Fill_5" data-name="Fill 5" d="M.537,0H3.75a.536.536,0,0,1,.537.537v9.642a.536.536,0,0,1-.537.537H.537A.536.536,0,0,1,0,10.179V.537A.534.534,0,0,1,.537,0" transform="translate(10.712 4.284)"/>
</svg>
