<svg id="tag" xmlns="http://www.w3.org/2000/svg" xmlns:xlink="http://www.w3.org/1999/xlink" width="57.4" height="57.4" viewBox="0 0 57.4 57.4">
  <defs>
    <clipPath id="clip-path">
      <path id="Clip_3" data-name="Clip 3" d="M0,0H57.4V57.4H0Z" fill="none"/>
    </clipPath>
  </defs>
  <path id="Fill_1" data-name="Fill 1" d="M3.842,1.921A1.921,1.921,0,1,1,1.921,0,1.921,1.921,0,0,1,3.842,1.921Z" transform="translate(26.779 36.974)"/>
  <g id="Group_5" data-name="Group 5">
    <path id="Clip_3-2" data-name="Clip 3" d="M0,0H57.4V57.4H0Z" fill="none"/>
    <g id="Group_5-2" data-name="Group 5" clip-path="url(#clip-path)">
      <path id="Fill_2" data-name="Fill 2" d="M3.842,1.921A1.921,1.921,0,1,1,1.921,0,1.921,1.921,0,0,1,3.842,1.921Z" transform="translate(26.779 16.592)"/>
      <path id="Fill_4" data-name="Fill 4" d="M25.407,57.409A5.251,5.251,0,0,1,21.67,55.86L1.549,35.735a5.283,5.283,0,0,1,0-7.475L28.256,1.548A5.251,5.251,0,0,1,31.994,0H52.115A5.287,5.287,0,0,1,57.4,5.285V25.411a5.25,5.25,0,0,1-1.548,3.737L29.144,55.86A5.251,5.251,0,0,1,25.407,57.409Zm3.293-23.8A5.285,5.285,0,1,0,33.984,38.9,5.29,5.29,0,0,0,28.7,33.611ZM17.893,27.023a1.682,1.682,0,0,0,0,3.364H39.507a1.682,1.682,0,0,0,0-3.364ZM28.7,13.228a5.285,5.285,0,1,0,5.284,5.285A5.29,5.29,0,0,0,28.7,13.228ZM46.712,9.007a1.682,1.682,0,1,0,1.682,1.682A1.684,1.684,0,0,0,46.712,9.007Z"/>
    </g>
  </g>
</svg>
