<svg id="world" xmlns="http://www.w3.org/2000/svg" xmlns:xlink="http://www.w3.org/1999/xlink" width="57.4" height="57.391" viewBox="0 0 57.4 57.391">
  <defs>
    <clipPath id="clip-path">
      <path id="Clip_8" data-name="Clip 8" d="M0,0H22.217V57.391H0Z" fill="none"/>
    </clipPath>
  </defs>
  <path id="Fill_1" data-name="Fill 1" d="M3.363,1.682A1.682,1.682,0,1,1,1.682,0,1.681,1.681,0,0,1,3.363,1.682Z" transform="translate(40.471 40.471)"/>
  <path id="Fill_2" data-name="Fill 2" d="M3.363,1.682A1.682,1.682,0,1,1,1.682,0,1.681,1.681,0,0,1,3.363,1.682Z" transform="translate(13.565 13.565)"/>
  <path id="Fill_3" data-name="Fill 3" d="M18.247,0A29.632,29.632,0,0,0,13.6,8.757a5.051,5.051,0,0,0-4.8,4.809A32.341,32.341,0,0,0,0,18.339,28.71,28.71,0,0,1,18.247,0Z" transform="translate(1.406 1.45)"/>
  <path id="Fill_4" data-name="Fill 4" d="M18.241,18.336A28.715,28.715,0,0,1,0,0C3.77,3.077,8.971,4.947,12.507,6.056,13.771,10.733,15.657,15.159,18.241,18.336Z" transform="translate(1.406 37.611)"/>
  <path id="Fill_5" data-name="Fill 5" d="M18.242,18.339l-.094-.079c-3.873-3.2-8.785-4.854-12.409-5.959C4.476,7.616,2.587,3.18,0,0A28.712,28.712,0,0,1,18.242,18.339Z" transform="translate(37.753 1.453)"/>
  <path id="Fill_6" data-name="Fill 6" d="M18.248,0A28.714,28.714,0,0,1,0,18.343,29.659,29.659,0,0,0,4.645,9.585a5.052,5.052,0,0,0,4.8-4.771A29.747,29.747,0,0,0,18.155.079C18.187.053,18.218.027,18.248,0Z" transform="translate(37.747 37.607)"/>
  <g id="Group_10" data-name="Group 10" transform="translate(17.591)">
    <path id="Clip_8-2" data-name="Clip 8" d="M0,0H22.217V57.391H0Z" fill="none"/>
    <g id="Group_10-2" data-name="Group 10" clip-path="url(#clip-path)">
      <path id="Fill_7" data-name="Fill 7" d="M21.6,12.947A58.524,58.524,0,0,0,1.336,12.6,5.05,5.05,0,0,0,0,11.164C2.463,4.518,6.249,0,10.494,0,15.11,0,19.182,5.34,21.6,12.947Z" transform="translate(0.614)"/>
      <path id="Fill_9" data-name="Fill 9" d="M21.6,1.784C19.14,8.429,15.354,12.947,11.109,12.947,6.493,12.947,2.421,7.608,0,0A58.769,58.769,0,0,0,11.109,1.064,58.872,58.872,0,0,0,20.267.343,5.05,5.05,0,0,0,21.6,1.784Z" transform="translate(0 44.453)"/>
    </g>
  </g>
  <path id="Fill_11" data-name="Fill 11" d="M13.019,21.629C5.374,19.209,0,15.126,0,10.5,0,6.251,4.518,2.465,11.164,0a5.052,5.052,0,0,0,1.494,1.37,57.787,57.787,0,0,0-.774,9.126A59.028,59.028,0,0,0,13.019,21.629Z" transform="translate(0 18.204)"/>
  <path id="Fill_12" data-name="Fill 12" d="M13.019,11.134c0,4.244-4.518,8.03-11.164,10.5A5.052,5.052,0,0,0,.362,20.26a57.787,57.787,0,0,0,.774-9.126A59.028,59.028,0,0,0,0,0C7.645,2.421,13.019,6.5,13.019,11.134Z" transform="translate(44.381 17.566)"/>
  <path id="Fill_13" data-name="Fill 13" d="M26.906,13.453a55.3,55.3,0,0,1-.649,8.45A5.058,5.058,0,0,0,21.9,26.257a55.3,55.3,0,0,1-8.45.649,54.556,54.556,0,0,1-12.1-1.349A54.556,54.556,0,0,1,0,13.453,55.3,55.3,0,0,1,.649,5,5.058,5.058,0,0,0,5,.649,55.3,55.3,0,0,1,13.453,0a54.556,54.556,0,0,1,12.1,1.349A54.556,54.556,0,0,1,26.906,13.453Z" transform="translate(15.247 15.247)"/>
</svg>
