<svg id="global_1_" data-name="global (1)" xmlns="http://www.w3.org/2000/svg" xmlns:xlink="http://www.w3.org/1999/xlink" width="18.04" height="18.04" viewBox="0 0 18.04 18.04">
  <defs>
    <clipPath id="clip-path">
      <path id="Clip_9" data-name="Clip 9" d="M0,0H15.534V8.435H0Z" fill="none"/>
    </clipPath>
    <clipPath id="clip-path-2">
      <path id="Clip_18" data-name="Clip 18" d="M0,0H6.776V8.436H0Z" fill="none"/>
    </clipPath>
  </defs>
  <path id="Fill_1" data-name="Fill 1" d="M0,4.165C1.38,3.969,2.589,2.526,3.35.4A16.347,16.347,0,0,0,0,0Z" transform="translate(9.341 13.875)"/>
  <path id="Fill_2" data-name="Fill 2" d="M.282,3.273c.082-.024.163-.047.243-.074s.135-.046.2-.069.158-.056.237-.086.134-.053.2-.08l.229-.1c.066-.029.132-.06.2-.091s.148-.071.222-.108l.193-.1q.108-.058.215-.119c.065-.037.127-.073.19-.111l.209-.129q.093-.059.185-.121c.068-.046.135-.094.2-.142l.178-.129.2-.153c.057-.046.115-.092.171-.139s.126-.109.189-.165.11-.1.164-.147.122-.117.181-.176.1-.1.155-.155L4.27.852A10.819,10.819,0,0,0,2.061,0,8.02,8.02,0,0,1,0,3.353l.078-.019C.147,3.314.215,3.293.282,3.273Z" transform="translate(11.263 14.428)"/>
  <path id="Fill_3" data-name="Fill 3" d="M4.517,0H.651A16.784,16.784,0,0,1,0,4.469a11.207,11.207,0,0,1,2.447.976A9.035,9.035,0,0,0,4.517,0Z" transform="translate(13.523 9.343)"/>
  <path id="Fill_4" data-name="Fill 4" d="M0,4.311H4.188A16.187,16.187,0,0,0,3.553,0,16.955,16.955,0,0,1,0,.425Z" transform="translate(9.341 4.386)"/>
  <path id="Fill_5" data-name="Fill 5" d="M0,0V4.165a16.349,16.349,0,0,0,3.35-.4C2.589,1.639,1.38.2,0,0Z" transform="translate(9.341)"/>
  <path id="Fill_6" data-name="Fill 6" d="M0,3.886a16.971,16.971,0,0,1,3.553.425A16.187,16.187,0,0,0,4.188,0H0Z" transform="translate(9.341 9.343)"/>
  <path id="Fill_7" data-name="Fill 7" d="M2.447,0A11.207,11.207,0,0,1,0,.976,16.784,16.784,0,0,1,.651,5.445H4.517A9.038,9.038,0,0,0,2.447,0Z" transform="translate(13.523 3.252)"/>
  <g id="Group_11" data-name="Group 11" transform="translate(0 0.262)">
    <path id="Clip_9-2" data-name="Clip 9" d="M0,0H15.534V8.435H0Z" fill="none"/>
    <g id="Group_11-2" data-name="Group 11" clip-path="url(#clip-path)">
      <path id="Fill_8" data-name="Fill 8" d="M4.273,2.5l-.028-.03c-.051-.053-.1-.1-.156-.155s-.12-.119-.181-.176-.109-.1-.164-.147-.125-.112-.189-.165-.113-.092-.17-.138-.131-.1-.2-.154-.117-.087-.177-.129-.135-.1-.2-.143-.122-.08-.183-.119-.139-.089-.21-.132L2.227.9Q2.119.84,2.01.781c-.064-.032-.129-.067-.193-.1S1.667.608,1.591.572s-.13-.061-.2-.09-.153-.064-.23-.1S1.031.331.964.306.807.248.727.22.593.173.525.151.364.1.281.077C.214.057.146.037.079.019L0,0A8.022,8.022,0,0,1,2.061,3.353,10.808,10.808,0,0,0,4.273,2.5Z" transform="translate(11.261)"/>
      <path id="Fill_10" data-name="Fill 10" d="M0,5.445H3.866A16.791,16.791,0,0,1,4.517.976,11.193,11.193,0,0,1,2.07,0,9.036,9.036,0,0,0,0,5.445Z" transform="translate(-0.002 2.99)"/>
    </g>
  </g>
  <path id="Fill_12" data-name="Fill 12" d="M3.35,4.165V0A16.358,16.358,0,0,0,0,.4C.761,2.526,1.971,3.969,3.35,4.165Z" transform="translate(5.346 13.875)"/>
  <path id="Fill_13" data-name="Fill 13" d="M4.188,0H0A16.174,16.174,0,0,0,.635,4.311a16.948,16.948,0,0,1,3.553-.425Z" transform="translate(4.509 9.343)"/>
  <path id="Fill_14" data-name="Fill 14" d="M3.35,0C1.971.2.761,1.639,0,3.77a16.327,16.327,0,0,0,3.35.4Z" transform="translate(5.346)"/>
  <path id="Fill_15" data-name="Fill 15" d="M4.188.425A16.955,16.955,0,0,1,.635,0,16.174,16.174,0,0,0,0,4.311H4.188Z" transform="translate(4.509 4.386)"/>
  <path id="Fill_16" data-name="Fill 16" d="M4.269,0,4.191.019c-.068.018-.136.039-.2.058s-.161.047-.243.073S3.609.2,3.541.22s-.158.056-.236.085-.134.053-.2.08l-.229.1c-.067.029-.132.06-.2.091s-.149.071-.222.108l-.194.1Q2.154.841,2.047.9t-.19.111c-.07.042-.139.086-.208.129s-.124.08-.185.121-.135.094-.2.142l-.178.129c-.066.05-.129.1-.2.153s-.115.091-.171.139-.126.109-.188.164-.111.1-.165.148-.121.117-.181.176-.1.1-.156.155L0,2.5a10.807,10.807,0,0,0,2.209.852A8.017,8.017,0,0,1,4.269,0Z" transform="translate(2.504 0.261)"/>
  <g id="Group_20" data-name="Group 20" transform="translate(0 9.343)">
    <path id="Clip_18-2" data-name="Clip 18" d="M0,0H6.776V8.436H0Z" fill="none"/>
    <g id="Group_20-2" data-name="Group 20" clip-path="url(#clip-path-2)">
      <path id="Fill_17" data-name="Fill 17" d="M.181,1.037c.06.059.12.119.181.177s.109.1.164.146.125.112.189.165.113.092.17.138.129.1.2.155.117.086.176.129.135.1.2.143.122.08.183.12.139.089.21.131l.188.11c.072.041.144.081.217.12s.129.067.194.1.149.074.225.109l.2.09c.076.034.153.064.231.1s.132.054.2.079.157.058.237.086.134.047.2.069.161.05.244.074c.067.02.134.04.2.058l.079.019A8.022,8.022,0,0,1,2.209,0,10.806,10.806,0,0,0,0,.852l.028.03C.076.935.128.985.181,1.037Z" transform="translate(2.506 5.083)"/>
      <path id="Fill_19" data-name="Fill 19" d="M2.07,5.445a11.209,11.209,0,0,1,2.447-.976A16.791,16.791,0,0,1,3.866,0H0A9.037,9.037,0,0,0,2.07,5.445Z" transform="translate(-0.002)"/>
    </g>
  </g>
</svg>
